<?xml version="1.0" encoding="UTF-8"?>
<!-- Created with Inkscape (http://www.inkscape.org/) -->
<svg width="1920" height="1080" version="1.1" viewBox="0 0 508 285.75" xmlns="http://www.w3.org/2000/svg">
 <g stroke="#000080">
  <g fill="#333" stroke-width="1.0583">
   <path d="m22.772 8.7308a16.516 14.905 0 0 1-16.516 14.905 16.516 14.905 0 0 1-16.516-14.905 16.516 14.905 0 0 1 16.516-14.905 16.516 14.905 0 0 1 16.516 14.905z" style="paint-order:stroke markers fill"/>
   <path d="m22.772 38.541a16.516 14.905 0 0 1-16.516 14.905 16.516 14.905 0 0 1-16.516-14.905 16.516 14.905 0 0 1 16.516-14.905 16.516 14.905 0 0 1 16.516 14.905z" style="paint-order:stroke markers fill"/>
   <path d="m22.772 68.35a16.516 14.905 0 0 1-16.516 14.905 16.516 14.905 0 0 1-16.516-14.905 16.516 14.905 0 0 1 16.516-14.905 16.516 14.905 0 0 1 16.516 14.905z" style="paint-order:stroke markers fill"/>
   <path d="m22.772 98.16a16.516 14.905 0 0 1-16.516 14.905 16.516 14.905 0 0 1-16.516-14.905 16.516 14.905 0 0 1 16.516-14.905 16.516 14.905 0 0 1 16.516 14.905z" style="paint-order:stroke markers fill"/>
   <path d="m22.772 127.97a16.516 14.905 0 0 1-16.516 14.905 16.516 14.905 0 0 1-16.516-14.905 16.516 14.905 0 0 1 16.516-14.905 16.516 14.905 0 0 1 16.516 14.905z" style="paint-order:stroke markers fill"/>
   <path d="m22.772 157.78a16.516 14.905 0 0 1-16.516 14.905 16.516 14.905 0 0 1-16.516-14.905 16.516 14.905 0 0 1 16.516-14.905 16.516 14.905 0 0 1 16.516 14.905z" style="paint-order:stroke markers fill"/>
   <path d="m22.772 187.59a16.516 14.905 0 0 1-16.516 14.905 16.516 14.905 0 0 1-16.516-14.905 16.516 14.905 0 0 1 16.516-14.905 16.516 14.905 0 0 1 16.516 14.905z" style="paint-order:stroke markers fill"/>
   <path d="m22.772 217.4a16.516 14.905 0 0 1-16.516 14.905 16.516 14.905 0 0 1-16.516-14.905 16.516 14.905 0 0 1 16.516-14.905 16.516 14.905 0 0 1 16.516 14.905z" style="paint-order:stroke markers fill"/>
   <path d="m22.772 247.21a16.516 14.905 0 0 1-16.516 14.905 16.516 14.905 0 0 1-16.516-14.905 16.516 14.905 0 0 1 16.516-14.905 16.516 14.905 0 0 1 16.516 14.905z" style="paint-order:stroke markers fill"/>
   <path d="m22.772 277.02a16.516 14.905 0 0 1-16.516 14.905 16.516 14.905 0 0 1-16.516-14.905 16.516 14.905 0 0 1 16.516-14.905 16.516 14.905 0 0 1 16.516 14.905z" style="paint-order:stroke markers fill"/>
   <path d="m55.805 23.636a16.516 14.905 0 0 1-16.516 14.905 16.516 14.905 0 0 1-16.516-14.905 16.516 14.905 0 0 1 16.516-14.905 16.516 14.905 0 0 1 16.516 14.905z" style="paint-order:stroke markers fill"/>
   <path d="m55.805-6.1741a16.516 14.905 0 0 1-16.516 14.905 16.516 14.905 0 0 1-16.516-14.905 16.516 14.905 0 0 1 16.516-14.905 16.516 14.905 0 0 1 16.516 14.905z" style="paint-order:stroke markers fill"/>
   <path d="m55.805 53.446a16.516 14.905 0 0 1-16.516 14.905 16.516 14.905 0 0 1-16.516-14.905 16.516 14.905 0 0 1 16.516-14.905 16.516 14.905 0 0 1 16.516 14.905z" style="paint-order:stroke markers fill"/>
   <path d="m55.805 83.255a16.516 14.905 0 0 1-16.516 14.905 16.516 14.905 0 0 1-16.516-14.905 16.516 14.905 0 0 1 16.516-14.905 16.516 14.905 0 0 1 16.516 14.905z" style="paint-order:stroke markers fill"/>
   <path d="m55.805 113.07a16.516 14.905 0 0 1-16.516 14.905 16.516 14.905 0 0 1-16.516-14.905 16.516 14.905 0 0 1 16.516-14.905 16.516 14.905 0 0 1 16.516 14.905z" style="paint-order:stroke markers fill"/>
   <path d="m55.805 142.88a16.516 14.905 0 0 1-16.516 14.905 16.516 14.905 0 0 1-16.516-14.905 16.516 14.905 0 0 1 16.516-14.905 16.516 14.905 0 0 1 16.516 14.905z" style="paint-order:stroke markers fill"/>
   <path d="m55.805 172.68a16.516 14.905 0 0 1-16.516 14.905 16.516 14.905 0 0 1-16.516-14.905 16.516 14.905 0 0 1 16.516-14.905 16.516 14.905 0 0 1 16.516 14.905z" style="paint-order:stroke markers fill"/>
   <path d="m55.805 202.49a16.516 14.905 0 0 1-16.516 14.905 16.516 14.905 0 0 1-16.516-14.905 16.516 14.905 0 0 1 16.516-14.905 16.516 14.905 0 0 1 16.516 14.905z" style="paint-order:stroke markers fill"/>
   <path d="m55.805 232.3a16.516 14.905 0 0 1-16.516 14.905 16.516 14.905 0 0 1-16.516-14.905 16.516 14.905 0 0 1 16.516-14.905 16.516 14.905 0 0 1 16.516 14.905z" style="paint-order:stroke markers fill"/>
   <path d="m55.805 262.11a16.516 14.905 0 0 1-16.516 14.905 16.516 14.905 0 0 1-16.516-14.905 16.516 14.905 0 0 1 16.516-14.905 16.516 14.905 0 0 1 16.516 14.905z" style="paint-order:stroke markers fill"/>
   <path d="m55.805 291.92a16.516 14.905 0 0 1-16.516 14.905 16.516 14.905 0 0 1-16.516-14.905 16.516 14.905 0 0 1 16.516-14.905 16.516 14.905 0 0 1 16.516 14.905z" style="paint-order:stroke markers fill"/>
   <path d="m88.837 8.7308a16.516 14.905 0 0 1-16.516 14.905 16.516 14.905 0 0 1-16.516-14.905 16.516 14.905 0 0 1 16.516-14.905 16.516 14.905 0 0 1 16.516 14.905z" style="paint-order:stroke markers fill"/>
   <path d="m88.837 38.541a16.516 14.905 0 0 1-16.516 14.905 16.516 14.905 0 0 1-16.516-14.905 16.516 14.905 0 0 1 16.516-14.905 16.516 14.905 0 0 1 16.516 14.905z" style="paint-order:stroke markers fill"/>
   <path d="m88.837 68.35a16.516 14.905 0 0 1-16.516 14.905 16.516 14.905 0 0 1-16.516-14.905 16.516 14.905 0 0 1 16.516-14.905 16.516 14.905 0 0 1 16.516 14.905z" style="paint-order:stroke markers fill"/>
   <path d="m88.837 98.16a16.516 14.905 0 0 1-16.516 14.905 16.516 14.905 0 0 1-16.516-14.905 16.516 14.905 0 0 1 16.516-14.905 16.516 14.905 0 0 1 16.516 14.905z" style="paint-order:stroke markers fill"/>
   <path d="m88.837 127.97a16.516 14.905 0 0 1-16.516 14.905 16.516 14.905 0 0 1-16.516-14.905 16.516 14.905 0 0 1 16.516-14.905 16.516 14.905 0 0 1 16.516 14.905z" style="paint-order:stroke markers fill"/>
   <path d="m88.837 157.78a16.516 14.905 0 0 1-16.516 14.905 16.516 14.905 0 0 1-16.516-14.905 16.516 14.905 0 0 1 16.516-14.905 16.516 14.905 0 0 1 16.516 14.905z" style="paint-order:stroke markers fill"/>
   <path d="m88.837 187.59a16.516 14.905 0 0 1-16.516 14.905 16.516 14.905 0 0 1-16.516-14.905 16.516 14.905 0 0 1 16.516-14.905 16.516 14.905 0 0 1 16.516 14.905z" style="paint-order:stroke markers fill"/>
   <path d="m88.837 217.4a16.516 14.905 0 0 1-16.516 14.905 16.516 14.905 0 0 1-16.516-14.905 16.516 14.905 0 0 1 16.516-14.905 16.516 14.905 0 0 1 16.516 14.905z" style="paint-order:stroke markers fill"/>
   <path d="m88.837 247.21a16.516 14.905 0 0 1-16.516 14.905 16.516 14.905 0 0 1-16.516-14.905 16.516 14.905 0 0 1 16.516-14.905 16.516 14.905 0 0 1 16.516 14.905z" style="paint-order:stroke markers fill"/>
   <path d="m88.837 277.02a16.516 14.905 0 0 1-16.516 14.905 16.516 14.905 0 0 1-16.516-14.905 16.516 14.905 0 0 1 16.516-14.905 16.516 14.905 0 0 1 16.516 14.905z" style="paint-order:stroke markers fill"/>
   <path d="m121.87 23.636a16.516 14.905 0 0 1-16.516 14.905 16.516 14.905 0 0 1-16.516-14.905 16.516 14.905 0 0 1 16.516-14.905 16.516 14.905 0 0 1 16.516 14.905z" style="paint-order:stroke markers fill"/>
   <path d="m121.87-6.1741a16.516 14.905 0 0 1-16.516 14.905 16.516 14.905 0 0 1-16.516-14.905 16.516 14.905 0 0 1 16.516-14.905 16.516 14.905 0 0 1 16.516 14.905z" style="paint-order:stroke markers fill"/>
   <path d="m121.87 53.446a16.516 14.905 0 0 1-16.516 14.905 16.516 14.905 0 0 1-16.516-14.905 16.516 14.905 0 0 1 16.516-14.905 16.516 14.905 0 0 1 16.516 14.905z" style="paint-order:stroke markers fill"/>
   <path d="m121.87 83.255a16.516 14.905 0 0 1-16.516 14.905 16.516 14.905 0 0 1-16.516-14.905 16.516 14.905 0 0 1 16.516-14.905 16.516 14.905 0 0 1 16.516 14.905z" style="paint-order:stroke markers fill"/>
   <path d="m121.87 113.07a16.516 14.905 0 0 1-16.516 14.905 16.516 14.905 0 0 1-16.516-14.905 16.516 14.905 0 0 1 16.516-14.905 16.516 14.905 0 0 1 16.516 14.905z" style="paint-order:stroke markers fill"/>
   <path d="m121.87 142.88a16.516 14.905 0 0 1-16.516 14.905 16.516 14.905 0 0 1-16.516-14.905 16.516 14.905 0 0 1 16.516-14.905 16.516 14.905 0 0 1 16.516 14.905z" style="paint-order:stroke markers fill"/>
   <path d="m121.87 172.68a16.516 14.905 0 0 1-16.516 14.905 16.516 14.905 0 0 1-16.516-14.905 16.516 14.905 0 0 1 16.516-14.905 16.516 14.905 0 0 1 16.516 14.905z" style="paint-order:stroke markers fill"/>
   <path d="m121.87 202.49a16.516 14.905 0 0 1-16.516 14.905 16.516 14.905 0 0 1-16.516-14.905 16.516 14.905 0 0 1 16.516-14.905 16.516 14.905 0 0 1 16.516 14.905z" style="paint-order:stroke markers fill"/>
   <path d="m121.87 232.3a16.516 14.905 0 0 1-16.516 14.905 16.516 14.905 0 0 1-16.516-14.905 16.516 14.905 0 0 1 16.516-14.905 16.516 14.905 0 0 1 16.516 14.905z" style="paint-order:stroke markers fill"/>
   <path d="m121.87 262.11a16.516 14.905 0 0 1-16.516 14.905 16.516 14.905 0 0 1-16.516-14.905 16.516 14.905 0 0 1 16.516-14.905 16.516 14.905 0 0 1 16.516 14.905z" style="paint-order:stroke markers fill"/>
   <path d="m121.87 291.92a16.516 14.905 0 0 1-16.516 14.905 16.516 14.905 0 0 1-16.516-14.905 16.516 14.905 0 0 1 16.516-14.905 16.516 14.905 0 0 1 16.516 14.905z" style="paint-order:stroke markers fill"/>
   <path d="m154.9 8.7308a16.516 14.905 0 0 1-16.516 14.905 16.516 14.905 0 0 1-16.516-14.905 16.516 14.905 0 0 1 16.516-14.905 16.516 14.905 0 0 1 16.516 14.905z" style="paint-order:stroke markers fill"/>
   <path d="m154.9 38.541a16.516 14.905 0 0 1-16.516 14.905 16.516 14.905 0 0 1-16.516-14.905 16.516 14.905 0 0 1 16.516-14.905 16.516 14.905 0 0 1 16.516 14.905z" style="paint-order:stroke markers fill"/>
   <path d="m154.9 68.35a16.516 14.905 0 0 1-16.516 14.905 16.516 14.905 0 0 1-16.516-14.905 16.516 14.905 0 0 1 16.516-14.905 16.516 14.905 0 0 1 16.516 14.905z" style="paint-order:stroke markers fill"/>
   <path d="m154.9 98.16a16.516 14.905 0 0 1-16.516 14.905 16.516 14.905 0 0 1-16.516-14.905 16.516 14.905 0 0 1 16.516-14.905 16.516 14.905 0 0 1 16.516 14.905z" style="paint-order:stroke markers fill"/>
   <path d="m154.9 127.97a16.516 14.905 0 0 1-16.516 14.905 16.516 14.905 0 0 1-16.516-14.905 16.516 14.905 0 0 1 16.516-14.905 16.516 14.905 0 0 1 16.516 14.905z" style="paint-order:stroke markers fill"/>
   <path d="m154.9 157.78a16.516 14.905 0 0 1-16.516 14.905 16.516 14.905 0 0 1-16.516-14.905 16.516 14.905 0 0 1 16.516-14.905 16.516 14.905 0 0 1 16.516 14.905z" style="paint-order:stroke markers fill"/>
   <path d="m154.9 187.59a16.516 14.905 0 0 1-16.516 14.905 16.516 14.905 0 0 1-16.516-14.905 16.516 14.905 0 0 1 16.516-14.905 16.516 14.905 0 0 1 16.516 14.905z" style="paint-order:stroke markers fill"/>
   <path d="m154.9 217.4a16.516 14.905 0 0 1-16.516 14.905 16.516 14.905 0 0 1-16.516-14.905 16.516 14.905 0 0 1 16.516-14.905 16.516 14.905 0 0 1 16.516 14.905z" style="paint-order:stroke markers fill"/>
   <path d="m154.9 247.21a16.516 14.905 0 0 1-16.516 14.905 16.516 14.905 0 0 1-16.516-14.905 16.516 14.905 0 0 1 16.516-14.905 16.516 14.905 0 0 1 16.516 14.905z" style="paint-order:stroke markers fill"/>
   <path d="m154.9 277.02a16.516 14.905 0 0 1-16.516 14.905 16.516 14.905 0 0 1-16.516-14.905 16.516 14.905 0 0 1 16.516-14.905 16.516 14.905 0 0 1 16.516 14.905z" style="paint-order:stroke markers fill"/>
   <path d="m187.93 23.636a16.516 14.905 0 0 1-16.516 14.905 16.516 14.905 0 0 1-16.516-14.905 16.516 14.905 0 0 1 16.516-14.905 16.516 14.905 0 0 1 16.516 14.905z" style="paint-order:stroke markers fill"/>
   <path d="m187.93-6.1741a16.516 14.905 0 0 1-16.516 14.905 16.516 14.905 0 0 1-16.516-14.905 16.516 14.905 0 0 1 16.516-14.905 16.516 14.905 0 0 1 16.516 14.905z" style="paint-order:stroke markers fill"/>
   <path d="m187.93 53.446a16.516 14.905 0 0 1-16.516 14.905 16.516 14.905 0 0 1-16.516-14.905 16.516 14.905 0 0 1 16.516-14.905 16.516 14.905 0 0 1 16.516 14.905z" style="paint-order:stroke markers fill"/>
   <path d="m187.93 83.255a16.516 14.905 0 0 1-16.516 14.905 16.516 14.905 0 0 1-16.516-14.905 16.516 14.905 0 0 1 16.516-14.905 16.516 14.905 0 0 1 16.516 14.905z" style="paint-order:stroke markers fill"/>
   <path d="m187.93 113.07a16.516 14.905 0 0 1-16.516 14.905 16.516 14.905 0 0 1-16.516-14.905 16.516 14.905 0 0 1 16.516-14.905 16.516 14.905 0 0 1 16.516 14.905z" style="paint-order:stroke markers fill"/>
   <path d="m187.93 142.88a16.516 14.905 0 0 1-16.516 14.905 16.516 14.905 0 0 1-16.516-14.905 16.516 14.905 0 0 1 16.516-14.905 16.516 14.905 0 0 1 16.516 14.905z" style="paint-order:stroke markers fill"/>
   <path d="m187.93 172.68a16.516 14.905 0 0 1-16.516 14.905 16.516 14.905 0 0 1-16.516-14.905 16.516 14.905 0 0 1 16.516-14.905 16.516 14.905 0 0 1 16.516 14.905z" style="paint-order:stroke markers fill"/>
   <path d="m187.93 202.49a16.516 14.905 0 0 1-16.516 14.905 16.516 14.905 0 0 1-16.516-14.905 16.516 14.905 0 0 1 16.516-14.905 16.516 14.905 0 0 1 16.516 14.905z" style="paint-order:stroke markers fill"/>
   <path d="m187.93 232.3a16.516 14.905 0 0 1-16.516 14.905 16.516 14.905 0 0 1-16.516-14.905 16.516 14.905 0 0 1 16.516-14.905 16.516 14.905 0 0 1 16.516 14.905z" style="paint-order:stroke markers fill"/>
   <path d="m187.93 262.11a16.516 14.905 0 0 1-16.516 14.905 16.516 14.905 0 0 1-16.516-14.905 16.516 14.905 0 0 1 16.516-14.905 16.516 14.905 0 0 1 16.516 14.905z" style="paint-order:stroke markers fill"/>
   <path d="m187.93 291.92a16.516 14.905 0 0 1-16.516 14.905 16.516 14.905 0 0 1-16.516-14.905 16.516 14.905 0 0 1 16.516-14.905 16.516 14.905 0 0 1 16.516 14.905z" style="paint-order:stroke markers fill"/>
   <path d="m220.97 8.7308a16.516 14.905 0 0 1-16.516 14.905 16.516 14.905 0 0 1-16.516-14.905 16.516 14.905 0 0 1 16.516-14.905 16.516 14.905 0 0 1 16.516 14.905z" style="paint-order:stroke markers fill"/>
   <path d="m220.97 38.541a16.516 14.905 0 0 1-16.516 14.905 16.516 14.905 0 0 1-16.516-14.905 16.516 14.905 0 0 1 16.516-14.905 16.516 14.905 0 0 1 16.516 14.905z" style="paint-order:stroke markers fill"/>
   <path d="m220.97 68.35a16.516 14.905 0 0 1-16.516 14.905 16.516 14.905 0 0 1-16.516-14.905 16.516 14.905 0 0 1 16.516-14.905 16.516 14.905 0 0 1 16.516 14.905z" style="paint-order:stroke markers fill"/>
   <path d="m220.97 98.16a16.516 14.905 0 0 1-16.516 14.905 16.516 14.905 0 0 1-16.516-14.905 16.516 14.905 0 0 1 16.516-14.905 16.516 14.905 0 0 1 16.516 14.905z" style="paint-order:stroke markers fill"/>
   <path d="m220.97 127.97a16.516 14.905 0 0 1-16.516 14.905 16.516 14.905 0 0 1-16.516-14.905 16.516 14.905 0 0 1 16.516-14.905 16.516 14.905 0 0 1 16.516 14.905z" style="paint-order:stroke markers fill"/>
   <path d="m220.97 157.78a16.516 14.905 0 0 1-16.516 14.905 16.516 14.905 0 0 1-16.516-14.905 16.516 14.905 0 0 1 16.516-14.905 16.516 14.905 0 0 1 16.516 14.905z" style="paint-order:stroke markers fill"/>
   <path d="m220.97 187.59a16.516 14.905 0 0 1-16.516 14.905 16.516 14.905 0 0 1-16.516-14.905 16.516 14.905 0 0 1 16.516-14.905 16.516 14.905 0 0 1 16.516 14.905z" style="paint-order:stroke markers fill"/>
   <path d="m220.97 217.4a16.516 14.905 0 0 1-16.516 14.905 16.516 14.905 0 0 1-16.516-14.905 16.516 14.905 0 0 1 16.516-14.905 16.516 14.905 0 0 1 16.516 14.905z" style="paint-order:stroke markers fill"/>
   <path d="m220.97 247.21a16.516 14.905 0 0 1-16.516 14.905 16.516 14.905 0 0 1-16.516-14.905 16.516 14.905 0 0 1 16.516-14.905 16.516 14.905 0 0 1 16.516 14.905z" style="paint-order:stroke markers fill"/>
   <path d="m220.97 277.02a16.516 14.905 0 0 1-16.516 14.905 16.516 14.905 0 0 1-16.516-14.905 16.516 14.905 0 0 1 16.516-14.905 16.516 14.905 0 0 1 16.516 14.905z" style="paint-order:stroke markers fill"/>
   <path d="m254 23.636a16.516 14.905 0 0 1-16.516 14.905 16.516 14.905 0 0 1-16.516-14.905 16.516 14.905 0 0 1 16.516-14.905 16.516 14.905 0 0 1 16.516 14.905z" style="paint-order:stroke markers fill"/>
   <path d="m254-6.1741a16.516 14.905 0 0 1-16.516 14.905 16.516 14.905 0 0 1-16.516-14.905 16.516 14.905 0 0 1 16.516-14.905 16.516 14.905 0 0 1 16.516 14.905z" style="paint-order:stroke markers fill"/>
   <path d="m254 53.446a16.516 14.905 0 0 1-16.516 14.905 16.516 14.905 0 0 1-16.516-14.905 16.516 14.905 0 0 1 16.516-14.905 16.516 14.905 0 0 1 16.516 14.905z" style="paint-order:stroke markers fill"/>
   <path d="m254 83.255a16.516 14.905 0 0 1-16.516 14.905 16.516 14.905 0 0 1-16.516-14.905 16.516 14.905 0 0 1 16.516-14.905 16.516 14.905 0 0 1 16.516 14.905z" style="paint-order:stroke markers fill"/>
   <path d="m254 113.07a16.516 14.905 0 0 1-16.516 14.905 16.516 14.905 0 0 1-16.516-14.905 16.516 14.905 0 0 1 16.516-14.905 16.516 14.905 0 0 1 16.516 14.905z" style="paint-order:stroke markers fill"/>
   <path d="m254 142.88a16.516 14.905 0 0 1-16.516 14.905 16.516 14.905 0 0 1-16.516-14.905 16.516 14.905 0 0 1 16.516-14.905 16.516 14.905 0 0 1 16.516 14.905z" style="paint-order:stroke markers fill"/>
   <path d="m254 172.68a16.516 14.905 0 0 1-16.516 14.905 16.516 14.905 0 0 1-16.516-14.905 16.516 14.905 0 0 1 16.516-14.905 16.516 14.905 0 0 1 16.516 14.905z" style="paint-order:stroke markers fill"/>
   <path d="m254 202.49a16.516 14.905 0 0 1-16.516 14.905 16.516 14.905 0 0 1-16.516-14.905 16.516 14.905 0 0 1 16.516-14.905 16.516 14.905 0 0 1 16.516 14.905z" style="paint-order:stroke markers fill"/>
   <path d="m254 232.3a16.516 14.905 0 0 1-16.516 14.905 16.516 14.905 0 0 1-16.516-14.905 16.516 14.905 0 0 1 16.516-14.905 16.516 14.905 0 0 1 16.516 14.905z" style="paint-order:stroke markers fill"/>
   <path d="m254 262.11a16.516 14.905 0 0 1-16.516 14.905 16.516 14.905 0 0 1-16.516-14.905 16.516 14.905 0 0 1 16.516-14.905 16.516 14.905 0 0 1 16.516 14.905z" style="paint-order:stroke markers fill"/>
   <path d="m254 291.92a16.516 14.905 0 0 1-16.516 14.905 16.516 14.905 0 0 1-16.516-14.905 16.516 14.905 0 0 1 16.516-14.905 16.516 14.905 0 0 1 16.516 14.905z" style="paint-order:stroke markers fill"/>
   <path d="m287.03 8.7308a16.516 14.905 0 0 1-16.516 14.905 16.516 14.905 0 0 1-16.516-14.905 16.516 14.905 0 0 1 16.516-14.905 16.516 14.905 0 0 1 16.516 14.905z" style="paint-order:stroke markers fill"/>
   <path d="m287.03 38.541a16.516 14.905 0 0 1-16.516 14.905 16.516 14.905 0 0 1-16.516-14.905 16.516 14.905 0 0 1 16.516-14.905 16.516 14.905 0 0 1 16.516 14.905z" style="paint-order:stroke markers fill"/>
   <path d="m287.03 68.35a16.516 14.905 0 0 1-16.516 14.905 16.516 14.905 0 0 1-16.516-14.905 16.516 14.905 0 0 1 16.516-14.905 16.516 14.905 0 0 1 16.516 14.905z" style="paint-order:stroke markers fill"/>
   <path d="m287.03 98.16a16.516 14.905 0 0 1-16.516 14.905 16.516 14.905 0 0 1-16.516-14.905 16.516 14.905 0 0 1 16.516-14.905 16.516 14.905 0 0 1 16.516 14.905z" style="paint-order:stroke markers fill"/>
   <path d="m287.03 127.97a16.516 14.905 0 0 1-16.516 14.905 16.516 14.905 0 0 1-16.516-14.905 16.516 14.905 0 0 1 16.516-14.905 16.516 14.905 0 0 1 16.516 14.905z" style="paint-order:stroke markers fill"/>
   <path d="m287.03 157.78a16.516 14.905 0 0 1-16.516 14.905 16.516 14.905 0 0 1-16.516-14.905 16.516 14.905 0 0 1 16.516-14.905 16.516 14.905 0 0 1 16.516 14.905z" style="paint-order:stroke markers fill"/>
   <path d="m287.03 187.59a16.516 14.905 0 0 1-16.516 14.905 16.516 14.905 0 0 1-16.516-14.905 16.516 14.905 0 0 1 16.516-14.905 16.516 14.905 0 0 1 16.516 14.905z" style="paint-order:stroke markers fill"/>
   <path d="m287.03 217.4a16.516 14.905 0 0 1-16.516 14.905 16.516 14.905 0 0 1-16.516-14.905 16.516 14.905 0 0 1 16.516-14.905 16.516 14.905 0 0 1 16.516 14.905z" style="paint-order:stroke markers fill"/>
   <path d="m287.03 247.21a16.516 14.905 0 0 1-16.516 14.905 16.516 14.905 0 0 1-16.516-14.905 16.516 14.905 0 0 1 16.516-14.905 16.516 14.905 0 0 1 16.516 14.905z" style="paint-order:stroke markers fill"/>
   <path d="m287.03 277.02a16.516 14.905 0 0 1-16.516 14.905 16.516 14.905 0 0 1-16.516-14.905 16.516 14.905 0 0 1 16.516-14.905 16.516 14.905 0 0 1 16.516 14.905z" style="paint-order:stroke markers fill"/>
   <path d="m320.07 23.636a16.516 14.905 0 0 1-16.516 14.905 16.516 14.905 0 0 1-16.516-14.905 16.516 14.905 0 0 1 16.516-14.905 16.516 14.905 0 0 1 16.516 14.905z" style="paint-order:stroke markers fill"/>
   <path d="m320.07-6.1741a16.516 14.905 0 0 1-16.516 14.905 16.516 14.905 0 0 1-16.516-14.905 16.516 14.905 0 0 1 16.516-14.905 16.516 14.905 0 0 1 16.516 14.905z" style="paint-order:stroke markers fill"/>
   <path d="m320.07 53.446a16.516 14.905 0 0 1-16.516 14.905 16.516 14.905 0 0 1-16.516-14.905 16.516 14.905 0 0 1 16.516-14.905 16.516 14.905 0 0 1 16.516 14.905z" style="paint-order:stroke markers fill"/>
   <path d="m320.07 83.255a16.516 14.905 0 0 1-16.516 14.905 16.516 14.905 0 0 1-16.516-14.905 16.516 14.905 0 0 1 16.516-14.905 16.516 14.905 0 0 1 16.516 14.905z" style="paint-order:stroke markers fill"/>
   <path d="m320.07 113.07a16.516 14.905 0 0 1-16.516 14.905 16.516 14.905 0 0 1-16.516-14.905 16.516 14.905 0 0 1 16.516-14.905 16.516 14.905 0 0 1 16.516 14.905z" style="paint-order:stroke markers fill"/>
   <path d="m320.07 142.88a16.516 14.905 0 0 1-16.516 14.905 16.516 14.905 0 0 1-16.516-14.905 16.516 14.905 0 0 1 16.516-14.905 16.516 14.905 0 0 1 16.516 14.905z" style="paint-order:stroke markers fill"/>
   <path d="m320.07 172.68a16.516 14.905 0 0 1-16.516 14.905 16.516 14.905 0 0 1-16.516-14.905 16.516 14.905 0 0 1 16.516-14.905 16.516 14.905 0 0 1 16.516 14.905z" style="paint-order:stroke markers fill"/>
   <path d="m320.07 202.49a16.516 14.905 0 0 1-16.516 14.905 16.516 14.905 0 0 1-16.516-14.905 16.516 14.905 0 0 1 16.516-14.905 16.516 14.905 0 0 1 16.516 14.905z" style="paint-order:stroke markers fill"/>
   <path d="m320.07 232.3a16.516 14.905 0 0 1-16.516 14.905 16.516 14.905 0 0 1-16.516-14.905 16.516 14.905 0 0 1 16.516-14.905 16.516 14.905 0 0 1 16.516 14.905z" style="paint-order:stroke markers fill"/>
   <path d="m320.07 262.11a16.516 14.905 0 0 1-16.516 14.905 16.516 14.905 0 0 1-16.516-14.905 16.516 14.905 0 0 1 16.516-14.905 16.516 14.905 0 0 1 16.516 14.905z" style="paint-order:stroke markers fill"/>
   <path d="m320.07 291.92a16.516 14.905 0 0 1-16.516 14.905 16.516 14.905 0 0 1-16.516-14.905 16.516 14.905 0 0 1 16.516-14.905 16.516 14.905 0 0 1 16.516 14.905z" style="paint-order:stroke markers fill"/>
   <path d="m353.1 8.7308a16.516 14.905 0 0 1-16.516 14.905 16.516 14.905 0 0 1-16.516-14.905 16.516 14.905 0 0 1 16.516-14.905 16.516 14.905 0 0 1 16.516 14.905z" style="paint-order:stroke markers fill"/>
   <path d="m353.1 38.541a16.516 14.905 0 0 1-16.516 14.905 16.516 14.905 0 0 1-16.516-14.905 16.516 14.905 0 0 1 16.516-14.905 16.516 14.905 0 0 1 16.516 14.905z" style="paint-order:stroke markers fill"/>
   <path d="m353.1 68.35a16.516 14.905 0 0 1-16.516 14.905 16.516 14.905 0 0 1-16.516-14.905 16.516 14.905 0 0 1 16.516-14.905 16.516 14.905 0 0 1 16.516 14.905z" style="paint-order:stroke markers fill"/>
   <path d="m353.1 98.16a16.516 14.905 0 0 1-16.516 14.905 16.516 14.905 0 0 1-16.516-14.905 16.516 14.905 0 0 1 16.516-14.905 16.516 14.905 0 0 1 16.516 14.905z" style="paint-order:stroke markers fill"/>
   <path d="m353.1 127.97a16.516 14.905 0 0 1-16.516 14.905 16.516 14.905 0 0 1-16.516-14.905 16.516 14.905 0 0 1 16.516-14.905 16.516 14.905 0 0 1 16.516 14.905z" style="paint-order:stroke markers fill"/>
   <path d="m353.1 157.78a16.516 14.905 0 0 1-16.516 14.905 16.516 14.905 0 0 1-16.516-14.905 16.516 14.905 0 0 1 16.516-14.905 16.516 14.905 0 0 1 16.516 14.905z" style="paint-order:stroke markers fill"/>
   <path d="m353.1 187.59a16.516 14.905 0 0 1-16.516 14.905 16.516 14.905 0 0 1-16.516-14.905 16.516 14.905 0 0 1 16.516-14.905 16.516 14.905 0 0 1 16.516 14.905z" style="paint-order:stroke markers fill"/>
   <path d="m353.1 217.4a16.516 14.905 0 0 1-16.516 14.905 16.516 14.905 0 0 1-16.516-14.905 16.516 14.905 0 0 1 16.516-14.905 16.516 14.905 0 0 1 16.516 14.905z" style="paint-order:stroke markers fill"/>
   <path d="m353.1 247.21a16.516 14.905 0 0 1-16.516 14.905 16.516 14.905 0 0 1-16.516-14.905 16.516 14.905 0 0 1 16.516-14.905 16.516 14.905 0 0 1 16.516 14.905z" style="paint-order:stroke markers fill"/>
   <path d="m353.1 277.02a16.516 14.905 0 0 1-16.516 14.905 16.516 14.905 0 0 1-16.516-14.905 16.516 14.905 0 0 1 16.516-14.905 16.516 14.905 0 0 1 16.516 14.905z" style="paint-order:stroke markers fill"/>
   <path d="m386.13 23.636a16.516 14.905 0 0 1-16.516 14.905 16.516 14.905 0 0 1-16.516-14.905 16.516 14.905 0 0 1 16.516-14.905 16.516 14.905 0 0 1 16.516 14.905z" style="paint-order:stroke markers fill"/>
   <path d="m386.13-6.1741a16.516 14.905 0 0 1-16.516 14.905 16.516 14.905 0 0 1-16.516-14.905 16.516 14.905 0 0 1 16.516-14.905 16.516 14.905 0 0 1 16.516 14.905z" style="paint-order:stroke markers fill"/>
   <path d="m386.13 53.446a16.516 14.905 0 0 1-16.516 14.905 16.516 14.905 0 0 1-16.516-14.905 16.516 14.905 0 0 1 16.516-14.905 16.516 14.905 0 0 1 16.516 14.905z" style="paint-order:stroke markers fill"/>
   <path d="m386.13 83.255a16.516 14.905 0 0 1-16.516 14.905 16.516 14.905 0 0 1-16.516-14.905 16.516 14.905 0 0 1 16.516-14.905 16.516 14.905 0 0 1 16.516 14.905z" style="paint-order:stroke markers fill"/>
   <path d="m386.13 113.07a16.516 14.905 0 0 1-16.516 14.905 16.516 14.905 0 0 1-16.516-14.905 16.516 14.905 0 0 1 16.516-14.905 16.516 14.905 0 0 1 16.516 14.905z" style="paint-order:stroke markers fill"/>
   <path d="m386.13 142.88a16.516 14.905 0 0 1-16.516 14.905 16.516 14.905 0 0 1-16.516-14.905 16.516 14.905 0 0 1 16.516-14.905 16.516 14.905 0 0 1 16.516 14.905z" style="paint-order:stroke markers fill"/>
   <path d="m386.13 172.68a16.516 14.905 0 0 1-16.516 14.905 16.516 14.905 0 0 1-16.516-14.905 16.516 14.905 0 0 1 16.516-14.905 16.516 14.905 0 0 1 16.516 14.905z" style="paint-order:stroke markers fill"/>
   <path d="m386.13 202.49a16.516 14.905 0 0 1-16.516 14.905 16.516 14.905 0 0 1-16.516-14.905 16.516 14.905 0 0 1 16.516-14.905 16.516 14.905 0 0 1 16.516 14.905z" style="paint-order:stroke markers fill"/>
   <path d="m386.13 232.3a16.516 14.905 0 0 1-16.516 14.905 16.516 14.905 0 0 1-16.516-14.905 16.516 14.905 0 0 1 16.516-14.905 16.516 14.905 0 0 1 16.516 14.905z" style="paint-order:stroke markers fill"/>
   <path d="m386.13 262.11a16.516 14.905 0 0 1-16.516 14.905 16.516 14.905 0 0 1-16.516-14.905 16.516 14.905 0 0 1 16.516-14.905 16.516 14.905 0 0 1 16.516 14.905z" style="paint-order:stroke markers fill"/>
   <path d="m386.13 291.92a16.516 14.905 0 0 1-16.516 14.905 16.516 14.905 0 0 1-16.516-14.905 16.516 14.905 0 0 1 16.516-14.905 16.516 14.905 0 0 1 16.516 14.905z" style="paint-order:stroke markers fill"/>
   <path d="m419.16 8.7308a16.516 14.905 0 0 1-16.516 14.905 16.516 14.905 0 0 1-16.516-14.905 16.516 14.905 0 0 1 16.516-14.905 16.516 14.905 0 0 1 16.516 14.905z" style="paint-order:stroke markers fill"/>
   <path d="m419.16 38.541a16.516 14.905 0 0 1-16.516 14.905 16.516 14.905 0 0 1-16.516-14.905 16.516 14.905 0 0 1 16.516-14.905 16.516 14.905 0 0 1 16.516 14.905z" style="paint-order:stroke markers fill"/>
   <path d="m419.16 68.35a16.516 14.905 0 0 1-16.516 14.905 16.516 14.905 0 0 1-16.516-14.905 16.516 14.905 0 0 1 16.516-14.905 16.516 14.905 0 0 1 16.516 14.905z" style="paint-order:stroke markers fill"/>
   <path d="m419.16 98.16a16.516 14.905 0 0 1-16.516 14.905 16.516 14.905 0 0 1-16.516-14.905 16.516 14.905 0 0 1 16.516-14.905 16.516 14.905 0 0 1 16.516 14.905z" style="paint-order:stroke markers fill"/>
   <path d="m419.16 127.97a16.516 14.905 0 0 1-16.516 14.905 16.516 14.905 0 0 1-16.516-14.905 16.516 14.905 0 0 1 16.516-14.905 16.516 14.905 0 0 1 16.516 14.905z" style="paint-order:stroke markers fill"/>
   <path d="m419.16 157.78a16.516 14.905 0 0 1-16.516 14.905 16.516 14.905 0 0 1-16.516-14.905 16.516 14.905 0 0 1 16.516-14.905 16.516 14.905 0 0 1 16.516 14.905z" style="paint-order:stroke markers fill"/>
   <path d="m419.16 187.59a16.516 14.905 0 0 1-16.516 14.905 16.516 14.905 0 0 1-16.516-14.905 16.516 14.905 0 0 1 16.516-14.905 16.516 14.905 0 0 1 16.516 14.905z" style="paint-order:stroke markers fill"/>
   <path d="m419.16 217.4a16.516 14.905 0 0 1-16.516 14.905 16.516 14.905 0 0 1-16.516-14.905 16.516 14.905 0 0 1 16.516-14.905 16.516 14.905 0 0 1 16.516 14.905z" style="paint-order:stroke markers fill"/>
   <path d="m419.16 247.21a16.516 14.905 0 0 1-16.516 14.905 16.516 14.905 0 0 1-16.516-14.905 16.516 14.905 0 0 1 16.516-14.905 16.516 14.905 0 0 1 16.516 14.905z" style="paint-order:stroke markers fill"/>
   <path d="m419.16 277.02a16.516 14.905 0 0 1-16.516 14.905 16.516 14.905 0 0 1-16.516-14.905 16.516 14.905 0 0 1 16.516-14.905 16.516 14.905 0 0 1 16.516 14.905z" style="paint-order:stroke markers fill"/>
   <path d="m452.2 23.636a16.516 14.905 0 0 1-16.516 14.905 16.516 14.905 0 0 1-16.516-14.905 16.516 14.905 0 0 1 16.516-14.905 16.516 14.905 0 0 1 16.516 14.905z" style="paint-order:stroke markers fill"/>
   <path d="m452.2-6.1741a16.516 14.905 0 0 1-16.516 14.905 16.516 14.905 0 0 1-16.516-14.905 16.516 14.905 0 0 1 16.516-14.905 16.516 14.905 0 0 1 16.516 14.905z" style="paint-order:stroke markers fill"/>
   <path d="m452.2 53.446a16.516 14.905 0 0 1-16.516 14.905 16.516 14.905 0 0 1-16.516-14.905 16.516 14.905 0 0 1 16.516-14.905 16.516 14.905 0 0 1 16.516 14.905z" style="paint-order:stroke markers fill"/>
   <path d="m452.2 83.255a16.516 14.905 0 0 1-16.516 14.905 16.516 14.905 0 0 1-16.516-14.905 16.516 14.905 0 0 1 16.516-14.905 16.516 14.905 0 0 1 16.516 14.905z" style="paint-order:stroke markers fill"/>
   <path d="m452.2 113.07a16.516 14.905 0 0 1-16.516 14.905 16.516 14.905 0 0 1-16.516-14.905 16.516 14.905 0 0 1 16.516-14.905 16.516 14.905 0 0 1 16.516 14.905z" style="paint-order:stroke markers fill"/>
   <path d="m452.2 142.88a16.516 14.905 0 0 1-16.516 14.905 16.516 14.905 0 0 1-16.516-14.905 16.516 14.905 0 0 1 16.516-14.905 16.516 14.905 0 0 1 16.516 14.905z" style="paint-order:stroke markers fill"/>
   <path d="m452.2 172.68a16.516 14.905 0 0 1-16.516 14.905 16.516 14.905 0 0 1-16.516-14.905 16.516 14.905 0 0 1 16.516-14.905 16.516 14.905 0 0 1 16.516 14.905z" style="paint-order:stroke markers fill"/>
   <path d="m452.2 202.49a16.516 14.905 0 0 1-16.516 14.905 16.516 14.905 0 0 1-16.516-14.905 16.516 14.905 0 0 1 16.516-14.905 16.516 14.905 0 0 1 16.516 14.905z" style="paint-order:stroke markers fill"/>
   <path d="m452.2 232.3a16.516 14.905 0 0 1-16.516 14.905 16.516 14.905 0 0 1-16.516-14.905 16.516 14.905 0 0 1 16.516-14.905 16.516 14.905 0 0 1 16.516 14.905z" style="paint-order:stroke markers fill"/>
   <path d="m452.2 262.11a16.516 14.905 0 0 1-16.516 14.905 16.516 14.905 0 0 1-16.516-14.905 16.516 14.905 0 0 1 16.516-14.905 16.516 14.905 0 0 1 16.516 14.905z" style="paint-order:stroke markers fill"/>
   <path d="m452.2 291.92a16.516 14.905 0 0 1-16.516 14.905 16.516 14.905 0 0 1-16.516-14.905 16.516 14.905 0 0 1 16.516-14.905 16.516 14.905 0 0 1 16.516 14.905z" style="paint-order:stroke markers fill"/>
   <path d="m485.23 8.7308a16.516 14.905 0 0 1-16.516 14.905 16.516 14.905 0 0 1-16.516-14.905 16.516 14.905 0 0 1 16.516-14.905 16.516 14.905 0 0 1 16.516 14.905z" style="paint-order:stroke markers fill"/>
   <path d="m485.23 38.541a16.516 14.905 0 0 1-16.516 14.905 16.516 14.905 0 0 1-16.516-14.905 16.516 14.905 0 0 1 16.516-14.905 16.516 14.905 0 0 1 16.516 14.905z" style="paint-order:stroke markers fill"/>
   <path d="m485.23 68.35a16.516 14.905 0 0 1-16.516 14.905 16.516 14.905 0 0 1-16.516-14.905 16.516 14.905 0 0 1 16.516-14.905 16.516 14.905 0 0 1 16.516 14.905z" style="paint-order:stroke markers fill"/>
   <path d="m485.23 98.16a16.516 14.905 0 0 1-16.516 14.905 16.516 14.905 0 0 1-16.516-14.905 16.516 14.905 0 0 1 16.516-14.905 16.516 14.905 0 0 1 16.516 14.905z" style="paint-order:stroke markers fill"/>
   <path d="m485.23 127.97a16.516 14.905 0 0 1-16.516 14.905 16.516 14.905 0 0 1-16.516-14.905 16.516 14.905 0 0 1 16.516-14.905 16.516 14.905 0 0 1 16.516 14.905z" style="paint-order:stroke markers fill"/>
   <path d="m485.23 157.78a16.516 14.905 0 0 1-16.516 14.905 16.516 14.905 0 0 1-16.516-14.905 16.516 14.905 0 0 1 16.516-14.905 16.516 14.905 0 0 1 16.516 14.905z" style="paint-order:stroke markers fill"/>
   <path d="m485.23 187.59a16.516 14.905 0 0 1-16.516 14.905 16.516 14.905 0 0 1-16.516-14.905 16.516 14.905 0 0 1 16.516-14.905 16.516 14.905 0 0 1 16.516 14.905z" style="paint-order:stroke markers fill"/>
   <path d="m485.23 217.4a16.516 14.905 0 0 1-16.516 14.905 16.516 14.905 0 0 1-16.516-14.905 16.516 14.905 0 0 1 16.516-14.905 16.516 14.905 0 0 1 16.516 14.905z" style="paint-order:stroke markers fill"/>
   <path d="m485.23 247.21a16.516 14.905 0 0 1-16.516 14.905 16.516 14.905 0 0 1-16.516-14.905 16.516 14.905 0 0 1 16.516-14.905 16.516 14.905 0 0 1 16.516 14.905z" style="paint-order:stroke markers fill"/>
   <path d="m485.23 277.02a16.516 14.905 0 0 1-16.516 14.905 16.516 14.905 0 0 1-16.516-14.905 16.516 14.905 0 0 1 16.516-14.905 16.516 14.905 0 0 1 16.516 14.905z" style="paint-order:stroke markers fill"/>
   <path d="m518.26 23.636a16.516 14.905 0 0 1-16.516 14.905 16.516 14.905 0 0 1-16.516-14.905 16.516 14.905 0 0 1 16.516-14.905 16.516 14.905 0 0 1 16.516 14.905z" style="paint-order:stroke markers fill"/>
   <path d="m518.26-6.1741a16.516 14.905 0 0 1-16.516 14.905 16.516 14.905 0 0 1-16.516-14.905 16.516 14.905 0 0 1 16.516-14.905 16.516 14.905 0 0 1 16.516 14.905z" style="paint-order:stroke markers fill"/>
   <path d="m518.26 53.446a16.516 14.905 0 0 1-16.516 14.905 16.516 14.905 0 0 1-16.516-14.905 16.516 14.905 0 0 1 16.516-14.905 16.516 14.905 0 0 1 16.516 14.905z" style="paint-order:stroke markers fill"/>
   <path d="m518.26 83.255a16.516 14.905 0 0 1-16.516 14.905 16.516 14.905 0 0 1-16.516-14.905 16.516 14.905 0 0 1 16.516-14.905 16.516 14.905 0 0 1 16.516 14.905z" style="paint-order:stroke markers fill"/>
   <path d="m518.26 113.07a16.516 14.905 0 0 1-16.516 14.905 16.516 14.905 0 0 1-16.516-14.905 16.516 14.905 0 0 1 16.516-14.905 16.516 14.905 0 0 1 16.516 14.905z" style="paint-order:stroke markers fill"/>
   <path d="m518.26 142.88a16.516 14.905 0 0 1-16.516 14.905 16.516 14.905 0 0 1-16.516-14.905 16.516 14.905 0 0 1 16.516-14.905 16.516 14.905 0 0 1 16.516 14.905z" style="paint-order:stroke markers fill"/>
   <path d="m518.26 172.68a16.516 14.905 0 0 1-16.516 14.905 16.516 14.905 0 0 1-16.516-14.905 16.516 14.905 0 0 1 16.516-14.905 16.516 14.905 0 0 1 16.516 14.905z" style="paint-order:stroke markers fill"/>
   <path d="m518.26 202.49a16.516 14.905 0 0 1-16.516 14.905 16.516 14.905 0 0 1-16.516-14.905 16.516 14.905 0 0 1 16.516-14.905 16.516 14.905 0 0 1 16.516 14.905z" style="paint-order:stroke markers fill"/>
   <path d="m518.26 232.3a16.516 14.905 0 0 1-16.516 14.905 16.516 14.905 0 0 1-16.516-14.905 16.516 14.905 0 0 1 16.516-14.905 16.516 14.905 0 0 1 16.516 14.905z" style="paint-order:stroke markers fill"/>
   <path d="m518.26 262.11a16.516 14.905 0 0 1-16.516 14.905 16.516 14.905 0 0 1-16.516-14.905 16.516 14.905 0 0 1 16.516-14.905 16.516 14.905 0 0 1 16.516 14.905z" style="paint-order:stroke markers fill"/>
   <path d="m518.26 291.92a16.516 14.905 0 0 1-16.516 14.905 16.516 14.905 0 0 1-16.516-14.905 16.516 14.905 0 0 1 16.516-14.905 16.516 14.905 0 0 1 16.516 14.905z" style="paint-order:stroke markers fill"/>
  </g>
 </g>
</svg>
