<?xml version="1.0" encoding="UTF-8" standalone="no"?>
<!-- Created with Inkscape (http://www.inkscape.org/) -->

<svg
   width="1920"
   height="1080"
   viewBox="0 0 507.99999 285.75"
   version="1.1"
   id="svg1"
   inkscape:version="1.4 (e7c3feb, 2024-10-09)"
   sodipodi:docname="circle.svg"
   inkscape:export-filename="circle_sm.svg"
   inkscape:export-xdpi="96"
   inkscape:export-ydpi="96"
   xmlns:inkscape="http://www.inkscape.org/namespaces/inkscape"
   xmlns:sodipodi="http://sodipodi.sourceforge.net/DTD/sodipodi-0.dtd"
   xmlns="http://www.w3.org/2000/svg"
   xmlns:svg="http://www.w3.org/2000/svg">
  <sodipodi:namedview
     id="namedview1"
     pagecolor="#ffffff"
     bordercolor="#000000"
     borderopacity="0.25"
     inkscape:showpageshadow="2"
     inkscape:pageopacity="0.0"
     inkscape:pagecheckerboard="0"
     inkscape:deskcolor="#d1d1d1"
     inkscape:document-units="px"
     inkscape:zoom="0.26432292"
     inkscape:cx="902.30542"
     inkscape:cy="448.31527"
     inkscape:window-width="1920"
     inkscape:window-height="1008"
     inkscape:window-x="0"
     inkscape:window-y="0"
     inkscape:window-maximized="1"
     inkscape:current-layer="layer1"
     inkscape:clip-to-page="true" />
  <defs
     id="defs1" />
  <g
     inkscape:label="Layer 1"
     inkscape:groupmode="layer"
     id="layer1">
    <path
       id="path1"
       style="fill:#333333;stroke:#000080;stroke-width:1.05833;paint-order:stroke markers fill"
       d="M 22.772368,8.7308035 A 16.516256,14.904914 0 0 1 6.2561116,23.635717 16.516256,14.904914 0 0 1 -10.260145,8.7308035 16.516256,14.904914 0 0 1 6.2561116,-6.1741104 16.516256,14.904914 0 0 1 22.772368,8.7308035 Z" />
    <path
       id="path1-5"
       style="fill:#333333;stroke:#000080;stroke-width:1.05833;paint-order:stroke markers fill"
       d="M 22.772368,38.54063 A 16.516256,14.904914 0 0 1 6.2561116,53.445544 16.516256,14.904914 0 0 1 -10.260145,38.54063 16.516256,14.904914 0 0 1 6.2561116,23.635716 16.516256,14.904914 0 0 1 22.772368,38.54063 Z" />
    <path
       id="path1-5-2"
       style="fill:#333333;stroke:#000080;stroke-width:1.05833;paint-order:stroke markers fill"
       d="M 22.772368,68.350456 A 16.516256,14.904914 0 0 1 6.2561116,83.25537 16.516256,14.904914 0 0 1 -10.260145,68.350456 16.516256,14.904914 0 0 1 6.2561116,53.445542 16.516256,14.904914 0 0 1 22.772368,68.350456 Z" />
    <path
       id="path1-7"
       style="fill:#333333;stroke:#000080;stroke-width:1.05833;paint-order:stroke markers fill"
       d="M 22.772368,98.160286 A 16.516256,14.904914 0 0 1 6.2561116,113.0652 16.516256,14.904914 0 0 1 -10.260145,98.160286 16.516256,14.904914 0 0 1 6.2561116,83.255372 16.516256,14.904914 0 0 1 22.772368,98.160286 Z" />
    <path
       id="path1-5-0"
       style="fill:#333333;stroke:#000080;stroke-width:1.05833;paint-order:stroke markers fill"
       d="M 22.772368,127.97012 A 16.516256,14.904914 0 0 1 6.2561116,142.87504 16.516256,14.904914 0 0 1 -10.260145,127.97012 16.516256,14.904914 0 0 1 6.2561116,113.06521 16.516256,14.904914 0 0 1 22.772368,127.97012 Z" />
    <path
       id="path1-5-2-9"
       style="fill:#333333;stroke:#000080;stroke-width:1.05833;paint-order:stroke markers fill"
       d="M 22.772368,157.77992 A 16.516256,14.904914 0 0 1 6.2561116,172.68484 16.516256,14.904914 0 0 1 -10.260145,157.77992 16.516256,14.904914 0 0 1 6.2561116,142.87501 16.516256,14.904914 0 0 1 22.772368,157.77992 Z" />
    <path
       id="path1-6"
       style="fill:#333333;stroke:#000080;stroke-width:1.05833;paint-order:stroke markers fill"
       d="M 22.772368,187.58975 A 16.516256,14.904914 0 0 1 6.2561116,202.49467 16.516256,14.904914 0 0 1 -10.260145,187.58975 16.516256,14.904914 0 0 1 6.2561116,172.68484 16.516256,14.904914 0 0 1 22.772368,187.58975 Z" />
    <path
       id="path1-5-26"
       style="fill:#333333;stroke:#000080;stroke-width:1.05833;paint-order:stroke markers fill"
       d="M 22.772368,217.39957 A 16.516256,14.904914 0 0 1 6.2561116,232.30448 16.516256,14.904914 0 0 1 -10.260145,217.39957 16.516256,14.904914 0 0 1 6.2561116,202.49465 16.516256,14.904914 0 0 1 22.772368,217.39957 Z" />
    <path
       id="path1-5-2-1"
       style="fill:#333333;stroke:#000080;stroke-width:1.05833;paint-order:stroke markers fill"
       d="M 22.772368,247.2094 A 16.516256,14.904914 0 0 1 6.2561116,262.11431 16.516256,14.904914 0 0 1 -10.260145,247.2094 16.516256,14.904914 0 0 1 6.2561116,232.30448 16.516256,14.904914 0 0 1 22.772368,247.2094 Z" />
    <path
       id="path1-5-2-1-2"
       style="fill:#333333;stroke:#000080;stroke-width:1.05833;paint-order:stroke markers fill"
       d="M 22.772368,277.01923 A 16.516256,14.904914 0 0 1 6.2561116,291.92414 16.516256,14.904914 0 0 1 -10.260145,277.01923 16.516256,14.904914 0 0 1 6.2561116,262.11431 16.516256,14.904914 0 0 1 22.772368,277.01923 Z" />
    <path
       id="path1-75"
       style="fill:#333333;stroke:#000080;stroke-width:1.05833;paint-order:stroke markers fill"
       d="M 55.804884,23.635717 A 16.516256,14.904914 0 0 1 39.288628,38.540631 16.516256,14.904914 0 0 1 22.772371,23.635717 16.516256,14.904914 0 0 1 39.288628,8.7308035 16.516256,14.904914 0 0 1 55.804884,23.635717 Z" />
    <path
       id="path1-75-1"
       style="fill:#333333;stroke:#000080;stroke-width:1.05833;paint-order:stroke markers fill"
       d="M 55.804884,-6.1741109 A 16.516256,14.904914 0 0 1 39.288628,8.730803 16.516256,14.904914 0 0 1 22.772371,-6.1741109 16.516256,14.904914 0 0 1 39.288628,-21.079025 16.516256,14.904914 0 0 1 55.804884,-6.1741109 Z" />
    <path
       id="path1-5-9"
       style="fill:#333333;stroke:#000080;stroke-width:1.05833;paint-order:stroke markers fill"
       d="M 55.804884,53.445541 A 16.516256,14.904914 0 0 1 39.288628,68.350455 16.516256,14.904914 0 0 1 22.772371,53.445541 16.516256,14.904914 0 0 1 39.288628,38.540627 16.516256,14.904914 0 0 1 55.804884,53.445541 Z" />
    <path
       id="path1-5-2-2"
       style="fill:#333333;stroke:#000080;stroke-width:1.05833;paint-order:stroke markers fill"
       d="M 55.804884,83.255371 A 16.516256,14.904914 0 0 1 39.288628,98.160285 16.516256,14.904914 0 0 1 22.772371,83.255371 16.516256,14.904914 0 0 1 39.288628,68.350457 16.516256,14.904914 0 0 1 55.804884,83.255371 Z" />
    <path
       id="path1-7-2"
       style="fill:#333333;stroke:#000080;stroke-width:1.05833;paint-order:stroke markers fill"
       d="M 55.804884,113.0652 A 16.516256,14.904914 0 0 1 39.288628,127.97011 16.516256,14.904914 0 0 1 22.772371,113.0652 16.516256,14.904914 0 0 1 39.288628,98.160287 16.516256,14.904914 0 0 1 55.804884,113.0652 Z" />
    <path
       id="path1-5-0-8"
       style="fill:#333333;stroke:#000080;stroke-width:1.05833;paint-order:stroke markers fill"
       d="M 55.804884,142.87503 A 16.516256,14.904914 0 0 1 39.288628,157.77994 16.516256,14.904914 0 0 1 22.772371,142.87503 16.516256,14.904914 0 0 1 39.288628,127.97012 16.516256,14.904914 0 0 1 55.804884,142.87503 Z" />
    <path
       id="path1-5-2-9-9"
       style="fill:#333333;stroke:#000080;stroke-width:1.05833;paint-order:stroke markers fill"
       d="M 55.804884,172.68483 A 16.516256,14.904914 0 0 1 39.288628,187.58974 16.516256,14.904914 0 0 1 22.772371,172.68483 16.516256,14.904914 0 0 1 39.288628,157.77992 16.516256,14.904914 0 0 1 55.804884,172.68483 Z" />
    <path
       id="path1-6-7"
       style="fill:#333333;stroke:#000080;stroke-width:1.05833;paint-order:stroke markers fill"
       d="M 55.804884,202.49466 A 16.516256,14.904914 0 0 1 39.288628,217.39957 16.516256,14.904914 0 0 1 22.772371,202.49466 16.516256,14.904914 0 0 1 39.288628,187.58975 16.516256,14.904914 0 0 1 55.804884,202.49466 Z" />
    <path
       id="path1-5-26-3"
       style="fill:#333333;stroke:#000080;stroke-width:1.05833;paint-order:stroke markers fill"
       d="M 55.804884,232.30447 A 16.516256,14.904914 0 0 1 39.288628,247.20939 16.516256,14.904914 0 0 1 22.772371,232.30447 16.516256,14.904914 0 0 1 39.288628,217.39956 16.516256,14.904914 0 0 1 55.804884,232.30447 Z" />
    <path
       id="path1-5-2-1-6"
       style="fill:#333333;stroke:#000080;stroke-width:1.05833;paint-order:stroke markers fill"
       d="M 55.804884,262.11432 A 16.516256,14.904914 0 0 1 39.288628,277.01923 16.516256,14.904914 0 0 1 22.772371,262.11432 16.516256,14.904914 0 0 1 39.288628,247.2094 16.516256,14.904914 0 0 1 55.804884,262.11432 Z" />
    <path
       id="path1-5-2-1-2-1"
       style="fill:#333333;stroke:#000080;stroke-width:1.05833;paint-order:stroke markers fill"
       d="M 55.804884,291.92413 A 16.516256,14.904914 0 0 1 39.288628,306.82905 16.516256,14.904914 0 0 1 22.772371,291.92413 16.516256,14.904914 0 0 1 39.288628,277.01922 16.516256,14.904914 0 0 1 55.804884,291.92413 Z" />
    <path
       id="path1-8"
       style="fill:#333333;stroke:#000080;stroke-width:1.05833;paint-order:stroke markers fill"
       d="M 88.837393,8.7308035 A 16.516256,14.904914 0 0 1 72.321136,23.635717 16.516256,14.904914 0 0 1 55.80488,8.7308035 16.516256,14.904914 0 0 1 72.321136,-6.1741104 16.516256,14.904914 0 0 1 88.837393,8.7308035 Z" />
    <path
       id="path1-5-4"
       style="fill:#333333;stroke:#000080;stroke-width:1.05833;paint-order:stroke markers fill"
       d="M 88.837393,38.540619 A 16.516256,14.904914 0 0 1 72.321136,53.445533 16.516256,14.904914 0 0 1 55.80488,38.540619 16.516256,14.904914 0 0 1 72.321136,23.635705 16.516256,14.904914 0 0 1 88.837393,38.540619 Z" />
    <path
       id="path1-5-2-5"
       style="fill:#333333;stroke:#000080;stroke-width:1.05833;paint-order:stroke markers fill"
       d="M 88.837393,68.350449 A 16.516256,14.904914 0 0 1 72.321136,83.255363 16.516256,14.904914 0 0 1 55.80488,68.350449 16.516256,14.904914 0 0 1 72.321136,53.445535 16.516256,14.904914 0 0 1 88.837393,68.350449 Z" />
    <path
       id="path1-7-0"
       style="fill:#333333;stroke:#000080;stroke-width:1.05833;paint-order:stroke markers fill"
       d="M 88.837393,98.160278 A 16.516256,14.904914 0 0 1 72.321136,113.06519 16.516256,14.904914 0 0 1 55.80488,98.160278 16.516256,14.904914 0 0 1 72.321136,83.255364 16.516256,14.904914 0 0 1 88.837393,98.160278 Z" />
    <path
       id="path1-5-0-3"
       style="fill:#333333;stroke:#000080;stroke-width:1.05833;paint-order:stroke markers fill"
       d="M 88.837393,127.97012 A 16.516256,14.904914 0 0 1 72.321136,142.87504 16.516256,14.904914 0 0 1 55.80488,127.97012 16.516256,14.904914 0 0 1 72.321136,113.06521 16.516256,14.904914 0 0 1 88.837393,127.97012 Z" />
    <path
       id="path1-5-2-9-6"
       style="fill:#333333;stroke:#000080;stroke-width:1.05833;paint-order:stroke markers fill"
       d="M 88.837393,157.77992 A 16.516256,14.904914 0 0 1 72.321136,172.68484 16.516256,14.904914 0 0 1 55.80488,157.77992 16.516256,14.904914 0 0 1 72.321136,142.87501 16.516256,14.904914 0 0 1 88.837393,157.77992 Z" />
    <path
       id="path1-6-1"
       style="fill:#333333;stroke:#000080;stroke-width:1.05833;paint-order:stroke markers fill"
       d="M 88.837393,187.58974 A 16.516256,14.904914 0 0 1 72.321136,202.49465 16.516256,14.904914 0 0 1 55.80488,187.58974 16.516256,14.904914 0 0 1 72.321136,172.68482 16.516256,14.904914 0 0 1 88.837393,187.58974 Z" />
    <path
       id="path1-5-26-0"
       style="fill:#333333;stroke:#000080;stroke-width:1.05833;paint-order:stroke markers fill"
       d="M 88.837393,217.39955 A 16.516256,14.904914 0 0 1 72.321136,232.30447 16.516256,14.904914 0 0 1 55.80488,217.39955 16.516256,14.904914 0 0 1 72.321136,202.49464 16.516256,14.904914 0 0 1 88.837393,217.39955 Z" />
    <path
       id="path1-5-2-1-63"
       style="fill:#333333;stroke:#000080;stroke-width:1.05833;paint-order:stroke markers fill"
       d="M 88.837393,247.2094 A 16.516256,14.904914 0 0 1 72.321136,262.11431 16.516256,14.904914 0 0 1 55.80488,247.2094 16.516256,14.904914 0 0 1 72.321136,232.30448 16.516256,14.904914 0 0 1 88.837393,247.2094 Z" />
    <path
       id="path1-5-2-1-2-2"
       style="fill:#333333;stroke:#000080;stroke-width:1.05833;paint-order:stroke markers fill"
       d="M 88.837393,277.01923 A 16.516256,14.904914 0 0 1 72.321136,291.92414 16.516256,14.904914 0 0 1 55.80488,277.01923 16.516256,14.904914 0 0 1 72.321136,262.11431 16.516256,14.904914 0 0 1 88.837393,277.01923 Z" />
    <path
       id="path1-75-0"
       style="fill:#333333;stroke:#000080;stroke-width:1.05833;paint-order:stroke markers fill"
       d="M 121.86991,23.63571 A 16.516256,14.904914 0 0 1 105.35365,38.540624 16.516256,14.904914 0 0 1 88.837397,23.63571 16.516256,14.904914 0 0 1 105.35365,8.7307959 16.516256,14.904914 0 0 1 121.86991,23.63571 Z" />
    <path
       id="path1-75-1-6"
       style="fill:#333333;stroke:#000080;stroke-width:1.05833;paint-order:stroke markers fill"
       d="M 121.86991,-6.1741195 A 16.516256,14.904914 0 0 1 105.35365,8.7307944 16.516256,14.904914 0 0 1 88.837397,-6.1741195 16.516256,14.904914 0 0 1 105.35365,-21.079033 16.516256,14.904914 0 0 1 121.86991,-6.1741195 Z" />
    <path
       id="path1-5-9-1"
       style="fill:#333333;stroke:#000080;stroke-width:1.05833;paint-order:stroke markers fill"
       d="M 121.86991,53.445541 A 16.516256,14.904914 0 0 1 105.35365,68.350455 16.516256,14.904914 0 0 1 88.837397,53.445541 16.516256,14.904914 0 0 1 105.35365,38.540627 16.516256,14.904914 0 0 1 121.86991,53.445541 Z" />
    <path
       id="path1-5-2-2-5"
       style="fill:#333333;stroke:#000080;stroke-width:1.05833;paint-order:stroke markers fill"
       d="M 121.86991,83.255371 A 16.516256,14.904914 0 0 1 105.35365,98.160285 16.516256,14.904914 0 0 1 88.837397,83.255371 16.516256,14.904914 0 0 1 105.35365,68.350457 16.516256,14.904914 0 0 1 121.86991,83.255371 Z" />
    <path
       id="path1-7-2-5"
       style="fill:#333333;stroke:#000080;stroke-width:1.05833;paint-order:stroke markers fill"
       d="M 121.86991,113.06519 A 16.516256,14.904914 0 0 1 105.35365,127.97011 16.516256,14.904914 0 0 1 88.837397,113.06519 16.516256,14.904914 0 0 1 105.35365,98.160279 16.516256,14.904914 0 0 1 121.86991,113.06519 Z" />
    <path
       id="path1-5-0-8-4"
       style="fill:#333333;stroke:#000080;stroke-width:1.05833;paint-order:stroke markers fill"
       d="m 121.86991,142.87502 a 16.516256,14.904914 0 0 1 -16.51626,14.90491 16.516256,14.904914 0 0 1 -16.516253,-14.90491 16.516256,14.904914 0 0 1 16.516253,-14.90492 16.516256,14.904914 0 0 1 16.51626,14.90492 z" />
    <path
       id="path1-5-2-9-9-7"
       style="fill:#333333;stroke:#000080;stroke-width:1.05833;paint-order:stroke markers fill"
       d="m 121.86991,172.68483 a 16.516256,14.904914 0 0 1 -16.51626,14.90491 16.516256,14.904914 0 0 1 -16.516253,-14.90491 16.516256,14.904914 0 0 1 16.516253,-14.90491 16.516256,14.904914 0 0 1 16.51626,14.90491 z" />
    <path
       id="path1-6-7-6"
       style="fill:#333333;stroke:#000080;stroke-width:1.05833;paint-order:stroke markers fill"
       d="m 121.86991,202.49464 a 16.516256,14.904914 0 0 1 -16.51626,14.90492 16.516256,14.904914 0 0 1 -16.516253,-14.90492 16.516256,14.904914 0 0 1 16.516253,-14.90491 16.516256,14.904914 0 0 1 16.51626,14.90491 z" />
    <path
       id="path1-5-26-3-5"
       style="fill:#333333;stroke:#000080;stroke-width:1.05833;paint-order:stroke markers fill"
       d="m 121.86991,232.30446 a 16.516256,14.904914 0 0 1 -16.51626,14.90491 16.516256,14.904914 0 0 1 -16.516253,-14.90491 16.516256,14.904914 0 0 1 16.516253,-14.90492 16.516256,14.904914 0 0 1 16.51626,14.90492 z" />
    <path
       id="path1-5-2-1-6-6"
       style="fill:#333333;stroke:#000080;stroke-width:1.05833;paint-order:stroke markers fill"
       d="m 121.86991,262.11432 a 16.516256,14.904914 0 0 1 -16.51626,14.90491 16.516256,14.904914 0 0 1 -16.516253,-14.90491 16.516256,14.904914 0 0 1 16.516253,-14.90492 16.516256,14.904914 0 0 1 16.51626,14.90492 z" />
    <path
       id="path1-5-2-1-2-1-9"
       style="fill:#333333;stroke:#000080;stroke-width:1.05833;paint-order:stroke markers fill"
       d="m 121.86991,291.92413 a 16.516256,14.904914 0 0 1 -16.51626,14.90492 16.516256,14.904914 0 0 1 -16.516253,-14.90492 16.516256,14.904914 0 0 1 16.516253,-14.90491 16.516256,14.904914 0 0 1 16.51626,14.90491 z" />
    <path
       id="path1-52"
       style="fill:#333333;stroke:#000080;stroke-width:1.05833;paint-order:stroke markers fill"
       d="M 154.90243,8.7307949 A 16.516256,14.904914 0 0 1 138.38617,23.635709 16.516256,14.904914 0 0 1 121.86991,8.7307949 16.516256,14.904914 0 0 1 138.38617,-6.174119 16.516256,14.904914 0 0 1 154.90243,8.7307949 Z" />
    <path
       id="path1-5-5"
       style="fill:#333333;stroke:#000080;stroke-width:1.05833;paint-order:stroke markers fill"
       d="M 154.90243,38.540623 A 16.516256,14.904914 0 0 1 138.38617,53.445537 16.516256,14.904914 0 0 1 121.86991,38.540623 16.516256,14.904914 0 0 1 138.38617,23.635709 16.516256,14.904914 0 0 1 154.90243,38.540623 Z" />
    <path
       id="path1-5-2-4"
       style="fill:#333333;stroke:#000080;stroke-width:1.05833;paint-order:stroke markers fill"
       d="M 154.90243,68.350456 A 16.516256,14.904914 0 0 1 138.38617,83.25537 16.516256,14.904914 0 0 1 121.86991,68.350456 16.516256,14.904914 0 0 1 138.38617,53.445542 16.516256,14.904914 0 0 1 154.90243,68.350456 Z" />
    <path
       id="path1-7-7"
       style="fill:#333333;stroke:#000080;stroke-width:1.05833;paint-order:stroke markers fill"
       d="M 154.90243,98.160286 A 16.516256,14.904914 0 0 1 138.38617,113.0652 16.516256,14.904914 0 0 1 121.86991,98.160286 16.516256,14.904914 0 0 1 138.38617,83.255372 16.516256,14.904914 0 0 1 154.90243,98.160286 Z" />
    <path
       id="path1-5-0-4"
       style="fill:#333333;stroke:#000080;stroke-width:1.05833;paint-order:stroke markers fill"
       d="m 154.90243,127.97012 a 16.516256,14.904914 0 0 1 -16.51626,14.90492 16.516256,14.904914 0 0 1 -16.51626,-14.90492 16.516256,14.904914 0 0 1 16.51626,-14.90491 16.516256,14.904914 0 0 1 16.51626,14.90491 z" />
    <path
       id="path1-5-2-9-4"
       style="fill:#333333;stroke:#000080;stroke-width:1.05833;paint-order:stroke markers fill"
       d="m 154.90243,157.77992 a 16.516256,14.904914 0 0 1 -16.51626,14.90492 16.516256,14.904914 0 0 1 -16.51626,-14.90492 16.516256,14.904914 0 0 1 16.51626,-14.90491 16.516256,14.904914 0 0 1 16.51626,14.90491 z" />
    <path
       id="path1-6-3"
       style="fill:#333333;stroke:#000080;stroke-width:1.05833;paint-order:stroke markers fill"
       d="m 154.90243,187.58974 a 16.516256,14.904914 0 0 1 -16.51626,14.90491 16.516256,14.904914 0 0 1 -16.51626,-14.90491 16.516256,14.904914 0 0 1 16.51626,-14.90492 16.516256,14.904914 0 0 1 16.51626,14.90492 z" />
    <path
       id="path1-5-26-07"
       style="fill:#333333;stroke:#000080;stroke-width:1.05833;paint-order:stroke markers fill"
       d="m 154.90243,217.39955 a 16.516256,14.904914 0 0 1 -16.51626,14.90492 16.516256,14.904914 0 0 1 -16.51626,-14.90492 16.516256,14.904914 0 0 1 16.51626,-14.90491 16.516256,14.904914 0 0 1 16.51626,14.90491 z" />
    <path
       id="path1-5-2-1-8"
       style="fill:#333333;stroke:#000080;stroke-width:1.05833;paint-order:stroke markers fill"
       d="m 154.90243,247.2094 a 16.516256,14.904914 0 0 1 -16.51626,14.90491 16.516256,14.904914 0 0 1 -16.51626,-14.90491 16.516256,14.904914 0 0 1 16.51626,-14.90492 16.516256,14.904914 0 0 1 16.51626,14.90492 z" />
    <path
       id="path1-5-2-1-2-6"
       style="fill:#333333;stroke:#000080;stroke-width:1.05833;paint-order:stroke markers fill"
       d="m 154.90243,277.01923 a 16.516256,14.904914 0 0 1 -16.51626,14.90491 16.516256,14.904914 0 0 1 -16.51626,-14.90491 16.516256,14.904914 0 0 1 16.51626,-14.90492 16.516256,14.904914 0 0 1 16.51626,14.90492 z" />
    <path
       id="path1-75-8"
       style="fill:#333333;stroke:#000080;stroke-width:1.05833;paint-order:stroke markers fill"
       d="M 187.93494,23.635717 A 16.516256,14.904914 0 0 1 171.41869,38.540631 16.516256,14.904914 0 0 1 154.90243,23.635717 16.516256,14.904914 0 0 1 171.41869,8.7308035 16.516256,14.904914 0 0 1 187.93494,23.635717 Z" />
    <path
       id="path1-75-1-8"
       style="fill:#333333;stroke:#000080;stroke-width:1.05833;paint-order:stroke markers fill"
       d="M 187.93494,-6.1741128 A 16.516256,14.904914 0 0 1 171.41869,8.7308011 16.516256,14.904914 0 0 1 154.90243,-6.1741128 16.516256,14.904914 0 0 1 171.41869,-21.079027 16.516256,14.904914 0 0 1 187.93494,-6.1741128 Z" />
    <path
       id="path1-5-9-4"
       style="fill:#333333;stroke:#000080;stroke-width:1.05833;paint-order:stroke markers fill"
       d="M 187.93494,53.44553 A 16.516256,14.904914 0 0 1 171.41869,68.350444 16.516256,14.904914 0 0 1 154.90243,53.44553 16.516256,14.904914 0 0 1 171.41869,38.540616 16.516256,14.904914 0 0 1 187.93494,53.44553 Z" />
    <path
       id="path1-5-2-2-3"
       style="fill:#333333;stroke:#000080;stroke-width:1.05833;paint-order:stroke markers fill"
       d="M 187.93494,83.255363 A 16.516256,14.904914 0 0 1 171.41869,98.160277 16.516256,14.904914 0 0 1 154.90243,83.255363 16.516256,14.904914 0 0 1 171.41869,68.35045 16.516256,14.904914 0 0 1 187.93494,83.255363 Z" />
    <path
       id="path1-7-2-1"
       style="fill:#333333;stroke:#000080;stroke-width:1.05833;paint-order:stroke markers fill"
       d="m 187.93494,113.06519 a 16.516256,14.904914 0 0 1 -16.51625,14.90492 16.516256,14.904914 0 0 1 -16.51626,-14.90492 16.516256,14.904914 0 0 1 16.51626,-14.904911 16.516256,14.904914 0 0 1 16.51625,14.904911 z" />
    <path
       id="path1-5-0-8-49"
       style="fill:#333333;stroke:#000080;stroke-width:1.05833;paint-order:stroke markers fill"
       d="m 187.93494,142.87503 a 16.516256,14.904914 0 0 1 -16.51625,14.90491 16.516256,14.904914 0 0 1 -16.51626,-14.90491 16.516256,14.904914 0 0 1 16.51626,-14.90491 16.516256,14.904914 0 0 1 16.51625,14.90491 z" />
    <path
       id="path1-5-2-9-9-2"
       style="fill:#333333;stroke:#000080;stroke-width:1.05833;paint-order:stroke markers fill"
       d="m 187.93494,172.68483 a 16.516256,14.904914 0 0 1 -16.51625,14.90491 16.516256,14.904914 0 0 1 -16.51626,-14.90491 16.516256,14.904914 0 0 1 16.51626,-14.90491 16.516256,14.904914 0 0 1 16.51625,14.90491 z" />
    <path
       id="path1-6-7-0"
       style="fill:#333333;stroke:#000080;stroke-width:1.05833;paint-order:stroke markers fill"
       d="m 187.93494,202.49464 a 16.516256,14.904914 0 0 1 -16.51625,14.90492 16.516256,14.904914 0 0 1 -16.51626,-14.90492 16.516256,14.904914 0 0 1 16.51626,-14.90491 16.516256,14.904914 0 0 1 16.51625,14.90491 z" />
    <path
       id="path1-5-26-3-6"
       style="fill:#333333;stroke:#000080;stroke-width:1.05833;paint-order:stroke markers fill"
       d="m 187.93494,232.30446 a 16.516256,14.904914 0 0 1 -16.51625,14.90491 16.516256,14.904914 0 0 1 -16.51626,-14.90491 16.516256,14.904914 0 0 1 16.51626,-14.90492 16.516256,14.904914 0 0 1 16.51625,14.90492 z" />
    <path
       id="path1-5-2-1-6-8"
       style="fill:#333333;stroke:#000080;stroke-width:1.05833;paint-order:stroke markers fill"
       d="m 187.93494,262.11432 a 16.516256,14.904914 0 0 1 -16.51625,14.90491 16.516256,14.904914 0 0 1 -16.51626,-14.90491 16.516256,14.904914 0 0 1 16.51626,-14.90492 16.516256,14.904914 0 0 1 16.51625,14.90492 z" />
    <path
       id="path1-5-2-1-2-1-92"
       style="fill:#333333;stroke:#000080;stroke-width:1.05833;paint-order:stroke markers fill"
       d="m 187.93494,291.92413 a 16.516256,14.904914 0 0 1 -16.51625,14.90492 16.516256,14.904914 0 0 1 -16.51626,-14.90492 16.516256,14.904914 0 0 1 16.51626,-14.90491 16.516256,14.904914 0 0 1 16.51625,14.90491 z" />
    <path
       id="path1-8-6"
       style="fill:#333333;stroke:#000080;stroke-width:1.05833;paint-order:stroke markers fill"
       d="M 220.96747,8.7307949 A 16.516256,14.904914 0 0 1 204.45122,23.635709 16.516256,14.904914 0 0 1 187.93496,8.7307949 16.516256,14.904914 0 0 1 204.45122,-6.174119 16.516256,14.904914 0 0 1 220.96747,8.7307949 Z" />
    <path
       id="path1-5-4-6"
       style="fill:#333333;stroke:#000080;stroke-width:1.05833;paint-order:stroke markers fill"
       d="M 220.96747,38.540607 A 16.516256,14.904914 0 0 1 204.45122,53.445521 16.516256,14.904914 0 0 1 187.93496,38.540607 16.516256,14.904914 0 0 1 204.45122,23.635694 16.516256,14.904914 0 0 1 220.96747,38.540607 Z" />
    <path
       id="path1-5-2-5-4"
       style="fill:#333333;stroke:#000080;stroke-width:1.05833;paint-order:stroke markers fill"
       d="M 220.96747,68.350441 A 16.516256,14.904914 0 0 1 204.45122,83.255355 16.516256,14.904914 0 0 1 187.93496,68.350441 16.516256,14.904914 0 0 1 204.45122,53.445527 16.516256,14.904914 0 0 1 220.96747,68.350441 Z" />
    <path
       id="path1-7-0-9"
       style="fill:#333333;stroke:#000080;stroke-width:1.05833;paint-order:stroke markers fill"
       d="M 220.96747,98.160271 A 16.516256,14.904914 0 0 1 204.45122,113.06518 16.516256,14.904914 0 0 1 187.93496,98.160271 16.516256,14.904914 0 0 1 204.45122,83.255357 16.516256,14.904914 0 0 1 220.96747,98.160271 Z" />
    <path
       id="path1-5-0-3-5"
       style="fill:#333333;stroke:#000080;stroke-width:1.05833;paint-order:stroke markers fill"
       d="m 220.96747,127.97012 a 16.516256,14.904914 0 0 1 -16.51625,14.90492 16.516256,14.904914 0 0 1 -16.51626,-14.90492 16.516256,14.904914 0 0 1 16.51626,-14.90491 16.516256,14.904914 0 0 1 16.51625,14.90491 z" />
    <path
       id="path1-5-2-9-6-0"
       style="fill:#333333;stroke:#000080;stroke-width:1.05833;paint-order:stroke markers fill"
       d="m 220.96747,157.77992 a 16.516256,14.904914 0 0 1 -16.51625,14.90492 16.516256,14.904914 0 0 1 -16.51626,-14.90492 16.516256,14.904914 0 0 1 16.51626,-14.90491 16.516256,14.904914 0 0 1 16.51625,14.90491 z" />
    <path
       id="path1-6-1-4"
       style="fill:#333333;stroke:#000080;stroke-width:1.05833;paint-order:stroke markers fill"
       d="m 220.96747,187.58974 a 16.516256,14.904914 0 0 1 -16.51625,14.90491 16.516256,14.904914 0 0 1 -16.51626,-14.90491 16.516256,14.904914 0 0 1 16.51626,-14.90492 16.516256,14.904914 0 0 1 16.51625,14.90492 z" />
    <path
       id="path1-5-26-0-8"
       style="fill:#333333;stroke:#000080;stroke-width:1.05833;paint-order:stroke markers fill"
       d="m 220.96747,217.39955 a 16.516256,14.904914 0 0 1 -16.51625,14.90492 16.516256,14.904914 0 0 1 -16.51626,-14.90492 16.516256,14.904914 0 0 1 16.51626,-14.90491 16.516256,14.904914 0 0 1 16.51625,14.90491 z" />
    <path
       id="path1-5-2-1-63-7"
       style="fill:#333333;stroke:#000080;stroke-width:1.05833;paint-order:stroke markers fill"
       d="m 220.96747,247.2094 a 16.516256,14.904914 0 0 1 -16.51625,14.90491 16.516256,14.904914 0 0 1 -16.51626,-14.90491 16.516256,14.904914 0 0 1 16.51626,-14.90492 16.516256,14.904914 0 0 1 16.51625,14.90492 z" />
    <path
       id="path1-5-2-1-2-2-1"
       style="fill:#333333;stroke:#000080;stroke-width:1.05833;paint-order:stroke markers fill"
       d="m 220.96747,277.01923 a 16.516256,14.904914 0 0 1 -16.51625,14.90491 16.516256,14.904914 0 0 1 -16.51626,-14.90491 16.516256,14.904914 0 0 1 16.51626,-14.90492 16.516256,14.904914 0 0 1 16.51625,14.90492 z" />
    <path
       id="path1-75-0-7"
       style="fill:#333333;stroke:#000080;stroke-width:1.05833;paint-order:stroke markers fill"
       d="M 253.99998,23.635702 A 16.516256,14.904914 0 0 1 237.48372,38.540616 16.516256,14.904914 0 0 1 220.96746,23.635702 16.516256,14.904914 0 0 1 237.48372,8.7307882 16.516256,14.904914 0 0 1 253.99998,23.635702 Z" />
    <path
       id="path1-75-1-6-2"
       style="fill:#333333;stroke:#000080;stroke-width:1.05833;paint-order:stroke markers fill"
       d="M 253.99998,-6.1741281 A 16.516256,14.904914 0 0 1 237.48372,8.7307858 16.516256,14.904914 0 0 1 220.96746,-6.1741281 16.516256,14.904914 0 0 1 237.48372,-21.079042 16.516256,14.904914 0 0 1 253.99998,-6.1741281 Z" />
    <path
       id="path1-5-9-1-7"
       style="fill:#333333;stroke:#000080;stroke-width:1.05833;paint-order:stroke markers fill"
       d="M 253.99998,53.44553 A 16.516256,14.904914 0 0 1 237.48372,68.350444 16.516256,14.904914 0 0 1 220.96746,53.44553 16.516256,14.904914 0 0 1 237.48372,38.540616 16.516256,14.904914 0 0 1 253.99998,53.44553 Z" />
    <path
       id="path1-5-2-2-5-2"
       style="fill:#333333;stroke:#000080;stroke-width:1.05833;paint-order:stroke markers fill"
       d="M 253.99998,83.255363 A 16.516256,14.904914 0 0 1 237.48372,98.160277 16.516256,14.904914 0 0 1 220.96746,83.255363 16.516256,14.904914 0 0 1 237.48372,68.35045 16.516256,14.904914 0 0 1 253.99998,83.255363 Z" />
    <path
       id="path1-7-2-5-2"
       style="fill:#333333;stroke:#000080;stroke-width:1.05833;paint-order:stroke markers fill"
       d="m 253.99998,113.06519 a 16.516256,14.904914 0 0 1 -16.51626,14.90492 16.516256,14.904914 0 0 1 -16.51626,-14.90492 16.516256,14.904914 0 0 1 16.51626,-14.904911 16.516256,14.904914 0 0 1 16.51626,14.904911 z" />
    <path
       id="path1-5-0-8-4-6"
       style="fill:#333333;stroke:#000080;stroke-width:1.05833;paint-order:stroke markers fill"
       d="m 253.99998,142.87502 a 16.516256,14.904914 0 0 1 -16.51626,14.90491 16.516256,14.904914 0 0 1 -16.51626,-14.90491 16.516256,14.904914 0 0 1 16.51626,-14.90492 16.516256,14.904914 0 0 1 16.51626,14.90492 z" />
    <path
       id="path1-5-2-9-9-7-1"
       style="fill:#333333;stroke:#000080;stroke-width:1.05833;paint-order:stroke markers fill"
       d="m 253.99998,172.68483 a 16.516256,14.904914 0 0 1 -16.51626,14.90491 16.516256,14.904914 0 0 1 -16.51626,-14.90491 16.516256,14.904914 0 0 1 16.51626,-14.90491 16.516256,14.904914 0 0 1 16.51626,14.90491 z" />
    <path
       id="path1-6-7-6-0"
       style="fill:#333333;stroke:#000080;stroke-width:1.05833;paint-order:stroke markers fill"
       d="m 253.99998,202.49464 a 16.516256,14.904914 0 0 1 -16.51626,14.90492 16.516256,14.904914 0 0 1 -16.51626,-14.90492 16.516256,14.904914 0 0 1 16.51626,-14.90491 16.516256,14.904914 0 0 1 16.51626,14.90491 z" />
    <path
       id="path1-5-26-3-5-6"
       style="fill:#333333;stroke:#000080;stroke-width:1.05833;paint-order:stroke markers fill"
       d="m 253.99998,232.30446 a 16.516256,14.904914 0 0 1 -16.51626,14.90491 16.516256,14.904914 0 0 1 -16.51626,-14.90491 16.516256,14.904914 0 0 1 16.51626,-14.90492 16.516256,14.904914 0 0 1 16.51626,14.90492 z" />
    <path
       id="path1-5-2-1-6-6-1"
       style="fill:#333333;stroke:#000080;stroke-width:1.05833;paint-order:stroke markers fill"
       d="m 253.99998,262.11432 a 16.516256,14.904914 0 0 1 -16.51626,14.90491 16.516256,14.904914 0 0 1 -16.51626,-14.90491 16.516256,14.904914 0 0 1 16.51626,-14.90492 16.516256,14.904914 0 0 1 16.51626,14.90492 z" />
    <path
       id="path1-5-2-1-2-1-9-5"
       style="fill:#333333;stroke:#000080;stroke-width:1.05833;paint-order:stroke markers fill"
       d="m 253.99998,291.92413 a 16.516256,14.904914 0 0 1 -16.51626,14.90492 16.516256,14.904914 0 0 1 -16.51626,-14.90492 16.516256,14.904914 0 0 1 16.51626,-14.90491 16.516256,14.904914 0 0 1 16.51626,14.90491 z" />
    <path
       id="path1-0"
       style="fill:#333333;stroke:#000080;stroke-width:1.05833;paint-order:stroke markers fill"
       d="M 287.03249,8.7308102 A 16.516256,14.904914 0 0 1 270.51624,23.635724 16.516256,14.904914 0 0 1 253.99998,8.7308102 16.516256,14.904914 0 0 1 270.51624,-6.1741037 16.516256,14.904914 0 0 1 287.03249,8.7308102 Z" />
    <path
       id="path1-5-91"
       style="fill:#333333;stroke:#000080;stroke-width:1.05833;paint-order:stroke markers fill"
       d="M 287.03249,38.540627 A 16.516256,14.904914 0 0 1 270.51624,53.44554 16.516256,14.904914 0 0 1 253.99998,38.540627 16.516256,14.904914 0 0 1 270.51624,23.635713 16.516256,14.904914 0 0 1 287.03249,38.540627 Z" />
    <path
       id="path1-5-2-7"
       style="fill:#333333;stroke:#000080;stroke-width:1.05833;paint-order:stroke markers fill"
       d="M 287.03249,68.350471 A 16.516256,14.904914 0 0 1 270.51624,83.255385 16.516256,14.904914 0 0 1 253.99998,68.350471 16.516256,14.904914 0 0 1 270.51624,53.445558 16.516256,14.904914 0 0 1 287.03249,68.350471 Z" />
    <path
       id="path1-7-71"
       style="fill:#333333;stroke:#000080;stroke-width:1.05833;paint-order:stroke markers fill"
       d="M 287.03249,98.160286 A 16.516256,14.904914 0 0 1 270.51624,113.0652 16.516256,14.904914 0 0 1 253.99998,98.160286 16.516256,14.904914 0 0 1 270.51624,83.255372 16.516256,14.904914 0 0 1 287.03249,98.160286 Z" />
    <path
       id="path1-5-0-1"
       style="fill:#333333;stroke:#000080;stroke-width:1.05833;paint-order:stroke markers fill"
       d="m 287.03249,127.97013 a 16.516256,14.904914 0 0 1 -16.51625,14.90491 16.516256,14.904914 0 0 1 -16.51626,-14.90491 16.516256,14.904914 0 0 1 16.51626,-14.90491 16.516256,14.904914 0 0 1 16.51625,14.90491 z" />
    <path
       id="path1-5-2-9-5"
       style="fill:#333333;stroke:#000080;stroke-width:1.05833;paint-order:stroke markers fill"
       d="m 287.03249,157.77994 a 16.516256,14.904914 0 0 1 -16.51625,14.90491 16.516256,14.904914 0 0 1 -16.51626,-14.90491 16.516256,14.904914 0 0 1 16.51626,-14.90492 16.516256,14.904914 0 0 1 16.51625,14.90492 z" />
    <path
       id="path1-6-9"
       style="fill:#333333;stroke:#000080;stroke-width:1.05833;paint-order:stroke markers fill"
       d="m 287.03249,187.58975 a 16.516256,14.904914 0 0 1 -16.51625,14.90492 16.516256,14.904914 0 0 1 -16.51626,-14.90492 16.516256,14.904914 0 0 1 16.51626,-14.90491 16.516256,14.904914 0 0 1 16.51625,14.90491 z" />
    <path
       id="path1-5-26-7"
       style="fill:#333333;stroke:#000080;stroke-width:1.05833;paint-order:stroke markers fill"
       d="m 287.03249,217.39957 a 16.516256,14.904914 0 0 1 -16.51625,14.90491 16.516256,14.904914 0 0 1 -16.51626,-14.90491 16.516256,14.904914 0 0 1 16.51626,-14.90492 16.516256,14.904914 0 0 1 16.51625,14.90492 z" />
    <path
       id="path1-5-2-1-7"
       style="fill:#333333;stroke:#000080;stroke-width:1.05833;paint-order:stroke markers fill"
       d="m 287.03249,247.20941 a 16.516256,14.904914 0 0 1 -16.51625,14.90492 16.516256,14.904914 0 0 1 -16.51626,-14.90492 16.516256,14.904914 0 0 1 16.51626,-14.90491 16.516256,14.904914 0 0 1 16.51625,14.90491 z" />
    <path
       id="path1-5-2-1-2-67"
       style="fill:#333333;stroke:#000080;stroke-width:1.05833;paint-order:stroke markers fill"
       d="m 287.03249,277.01923 a 16.516256,14.904914 0 0 1 -16.51625,14.90491 16.516256,14.904914 0 0 1 -16.51626,-14.90491 16.516256,14.904914 0 0 1 16.51626,-14.90492 16.516256,14.904914 0 0 1 16.51625,14.90492 z" />
    <path
       id="path1-75-3"
       style="fill:#333333;stroke:#000080;stroke-width:1.05833;paint-order:stroke markers fill"
       d="M 320.06502,23.635717 A 16.516256,14.904914 0 0 1 303.54877,38.540631 16.516256,14.904914 0 0 1 287.03251,23.635717 16.516256,14.904914 0 0 1 303.54877,8.7308035 16.516256,14.904914 0 0 1 320.06502,23.635717 Z" />
    <path
       id="path1-75-1-65"
       style="fill:#333333;stroke:#000080;stroke-width:1.05833;paint-order:stroke markers fill"
       d="M 320.06502,-6.1741128 A 16.516256,14.904914 0 0 1 303.54877,8.7308011 16.516256,14.904914 0 0 1 287.03251,-6.1741128 16.516256,14.904914 0 0 1 303.54877,-21.079027 16.516256,14.904914 0 0 1 320.06502,-6.1741128 Z" />
    <path
       id="path1-5-9-6"
       style="fill:#333333;stroke:#000080;stroke-width:1.05833;paint-order:stroke markers fill"
       d="M 320.06502,53.445534 A 16.516256,14.904914 0 0 1 303.54877,68.350448 16.516256,14.904914 0 0 1 287.03251,53.445534 16.516256,14.904914 0 0 1 303.54877,38.54062 16.516256,14.904914 0 0 1 320.06502,53.445534 Z" />
    <path
       id="path1-5-2-2-39"
       style="fill:#333333;stroke:#000080;stroke-width:1.05833;paint-order:stroke markers fill"
       d="M 320.06502,83.255379 A 16.516256,14.904914 0 0 1 303.54877,98.160293 16.516256,14.904914 0 0 1 287.03251,83.255379 16.516256,14.904914 0 0 1 303.54877,68.350465 16.516256,14.904914 0 0 1 320.06502,83.255379 Z" />
    <path
       id="path1-7-2-4"
       style="fill:#333333;stroke:#000080;stroke-width:1.05833;paint-order:stroke markers fill"
       d="m 320.06502,113.06519 a 16.516256,14.904914 0 0 1 -16.51625,14.90492 16.516256,14.904914 0 0 1 -16.51626,-14.90492 16.516256,14.904914 0 0 1 16.51626,-14.904911 16.516256,14.904914 0 0 1 16.51625,14.904911 z" />
    <path
       id="path1-5-0-8-8"
       style="fill:#333333;stroke:#000080;stroke-width:1.05833;paint-order:stroke markers fill"
       d="m 320.06502,142.87503 a 16.516256,14.904914 0 0 1 -16.51625,14.90491 16.516256,14.904914 0 0 1 -16.51626,-14.90491 16.516256,14.904914 0 0 1 16.51626,-14.90491 16.516256,14.904914 0 0 1 16.51625,14.90491 z" />
    <path
       id="path1-5-2-9-9-1"
       style="fill:#333333;stroke:#000080;stroke-width:1.05833;paint-order:stroke markers fill"
       d="m 320.06502,172.68484 a 16.516256,14.904914 0 0 1 -16.51625,14.90492 16.516256,14.904914 0 0 1 -16.51626,-14.90492 16.516256,14.904914 0 0 1 16.51626,-14.90491 16.516256,14.904914 0 0 1 16.51625,14.90491 z" />
    <path
       id="path1-6-7-2"
       style="fill:#333333;stroke:#000080;stroke-width:1.05833;paint-order:stroke markers fill"
       d="m 320.06502,202.49466 a 16.516256,14.904914 0 0 1 -16.51625,14.90491 16.516256,14.904914 0 0 1 -16.51626,-14.90491 16.516256,14.904914 0 0 1 16.51626,-14.90491 16.516256,14.904914 0 0 1 16.51625,14.90491 z" />
    <path
       id="path1-5-26-3-9"
       style="fill:#333333;stroke:#000080;stroke-width:1.05833;paint-order:stroke markers fill"
       d="m 320.06502,232.30447 a 16.516256,14.904914 0 0 1 -16.51625,14.90492 16.516256,14.904914 0 0 1 -16.51626,-14.90492 16.516256,14.904914 0 0 1 16.51626,-14.90491 16.516256,14.904914 0 0 1 16.51625,14.90491 z" />
    <path
       id="path1-5-2-1-6-3"
       style="fill:#333333;stroke:#000080;stroke-width:1.05833;paint-order:stroke markers fill"
       d="m 320.06502,262.11432 a 16.516256,14.904914 0 0 1 -16.51625,14.90491 16.516256,14.904914 0 0 1 -16.51626,-14.90491 16.516256,14.904914 0 0 1 16.51626,-14.90492 16.516256,14.904914 0 0 1 16.51625,14.90492 z" />
    <path
       id="path1-5-2-1-2-1-90"
       style="fill:#333333;stroke:#000080;stroke-width:1.05833;paint-order:stroke markers fill"
       d="m 320.06502,291.92413 a 16.516256,14.904914 0 0 1 -16.51625,14.90492 16.516256,14.904914 0 0 1 -16.51626,-14.90492 16.516256,14.904914 0 0 1 16.51626,-14.90491 16.516256,14.904914 0 0 1 16.51625,14.90491 z" />
    <path
       id="path1-8-8"
       style="fill:#333333;stroke:#000080;stroke-width:1.05833;paint-order:stroke markers fill"
       d="M 353.09752,8.7308102 A 16.516256,14.904914 0 0 1 336.58127,23.635724 16.516256,14.904914 0 0 1 320.06501,8.7308102 16.516256,14.904914 0 0 1 336.58127,-6.1741037 16.516256,14.904914 0 0 1 353.09752,8.7308102 Z" />
    <path
       id="path1-5-4-8"
       style="fill:#333333;stroke:#000080;stroke-width:1.05833;paint-order:stroke markers fill"
       d="M 353.09752,38.540627 A 16.516256,14.904914 0 0 1 336.58127,53.44554 16.516256,14.904914 0 0 1 320.06501,38.540627 16.516256,14.904914 0 0 1 336.58127,23.635713 16.516256,14.904914 0 0 1 353.09752,38.540627 Z" />
    <path
       id="path1-5-2-5-5"
       style="fill:#333333;stroke:#000080;stroke-width:1.05833;paint-order:stroke markers fill"
       d="M 353.09752,68.350441 A 16.516256,14.904914 0 0 1 336.58127,83.255355 16.516256,14.904914 0 0 1 320.06501,68.350441 16.516256,14.904914 0 0 1 336.58127,53.445527 16.516256,14.904914 0 0 1 353.09752,68.350441 Z" />
    <path
       id="path1-7-0-0"
       style="fill:#333333;stroke:#000080;stroke-width:1.05833;paint-order:stroke markers fill"
       d="M 353.09752,98.160286 A 16.516256,14.904914 0 0 1 336.58127,113.0652 16.516256,14.904914 0 0 1 320.06501,98.160286 16.516256,14.904914 0 0 1 336.58127,83.255372 16.516256,14.904914 0 0 1 353.09752,98.160286 Z" />
    <path
       id="path1-5-0-3-9"
       style="fill:#333333;stroke:#000080;stroke-width:1.05833;paint-order:stroke markers fill"
       d="m 353.09752,127.97013 a 16.516256,14.904914 0 0 1 -16.51625,14.90491 16.516256,14.904914 0 0 1 -16.51626,-14.90491 16.516256,14.904914 0 0 1 16.51626,-14.90491 16.516256,14.904914 0 0 1 16.51625,14.90491 z" />
    <path
       id="path1-5-2-9-6-6"
       style="fill:#333333;stroke:#000080;stroke-width:1.05833;paint-order:stroke markers fill"
       d="m 353.09752,157.77994 a 16.516256,14.904914 0 0 1 -16.51625,14.90491 16.516256,14.904914 0 0 1 -16.51626,-14.90491 16.516256,14.904914 0 0 1 16.51626,-14.90492 16.516256,14.904914 0 0 1 16.51625,14.90492 z" />
    <path
       id="path1-6-1-3"
       style="fill:#333333;stroke:#000080;stroke-width:1.05833;paint-order:stroke markers fill"
       d="m 353.09752,187.58975 a 16.516256,14.904914 0 0 1 -16.51625,14.90492 16.516256,14.904914 0 0 1 -16.51626,-14.90492 16.516256,14.904914 0 0 1 16.51626,-14.90491 16.516256,14.904914 0 0 1 16.51625,14.90491 z" />
    <path
       id="path1-5-26-0-85"
       style="fill:#333333;stroke:#000080;stroke-width:1.05833;paint-order:stroke markers fill"
       d="m 353.09752,217.39957 a 16.516256,14.904914 0 0 1 -16.51625,14.90491 16.516256,14.904914 0 0 1 -16.51626,-14.90491 16.516256,14.904914 0 0 1 16.51626,-14.90492 16.516256,14.904914 0 0 1 16.51625,14.90492 z" />
    <path
       id="path1-5-2-1-63-6"
       style="fill:#333333;stroke:#000080;stroke-width:1.05833;paint-order:stroke markers fill"
       d="m 353.09752,247.20941 a 16.516256,14.904914 0 0 1 -16.51625,14.90492 16.516256,14.904914 0 0 1 -16.51626,-14.90492 16.516256,14.904914 0 0 1 16.51626,-14.90491 16.516256,14.904914 0 0 1 16.51625,14.90491 z" />
    <path
       id="path1-5-2-1-2-2-11"
       style="fill:#333333;stroke:#000080;stroke-width:1.05833;paint-order:stroke markers fill"
       d="m 353.09752,277.01923 a 16.516256,14.904914 0 0 1 -16.51625,14.90491 16.516256,14.904914 0 0 1 -16.51626,-14.90491 16.516256,14.904914 0 0 1 16.51626,-14.90492 16.516256,14.904914 0 0 1 16.51625,14.90492 z" />
    <path
       id="path1-75-0-5"
       style="fill:#333333;stroke:#000080;stroke-width:1.05833;paint-order:stroke markers fill"
       d="M 386.13006,23.635717 A 16.516256,14.904914 0 0 1 369.6138,38.540631 16.516256,14.904914 0 0 1 353.09754,23.635717 16.516256,14.904914 0 0 1 369.6138,8.7308035 16.516256,14.904914 0 0 1 386.13006,23.635717 Z" />
    <path
       id="path1-75-1-6-9"
       style="fill:#333333;stroke:#000080;stroke-width:1.05833;paint-order:stroke markers fill"
       d="M 386.13006,-6.1741128 A 16.516256,14.904914 0 0 1 369.6138,8.7308011 16.516256,14.904914 0 0 1 353.09754,-6.1741128 16.516256,14.904914 0 0 1 369.6138,-21.079027 16.516256,14.904914 0 0 1 386.13006,-6.1741128 Z" />
    <path
       id="path1-5-9-1-8"
       style="fill:#333333;stroke:#000080;stroke-width:1.05833;paint-order:stroke markers fill"
       d="M 386.13006,53.445534 A 16.516256,14.904914 0 0 1 369.6138,68.350448 16.516256,14.904914 0 0 1 353.09754,53.445534 16.516256,14.904914 0 0 1 369.6138,38.54062 16.516256,14.904914 0 0 1 386.13006,53.445534 Z" />
    <path
       id="path1-5-2-2-5-4"
       style="fill:#333333;stroke:#000080;stroke-width:1.05833;paint-order:stroke markers fill"
       d="M 386.13006,83.255379 A 16.516256,14.904914 0 0 1 369.6138,98.160293 16.516256,14.904914 0 0 1 353.09754,83.255379 16.516256,14.904914 0 0 1 369.6138,68.350465 16.516256,14.904914 0 0 1 386.13006,83.255379 Z" />
    <path
       id="path1-7-2-5-8"
       style="fill:#333333;stroke:#000080;stroke-width:1.05833;paint-order:stroke markers fill"
       d="M 386.13006,113.06519 A 16.516256,14.904914 0 0 1 369.6138,127.97011 16.516256,14.904914 0 0 1 353.09754,113.06519 16.516256,14.904914 0 0 1 369.6138,98.160279 16.516256,14.904914 0 0 1 386.13006,113.06519 Z" />
    <path
       id="path1-5-0-8-4-1"
       style="fill:#333333;stroke:#000080;stroke-width:1.05833;paint-order:stroke markers fill"
       d="m 386.13006,142.87503 a 16.516256,14.904914 0 0 1 -16.51626,14.90491 16.516256,14.904914 0 0 1 -16.51626,-14.90491 16.516256,14.904914 0 0 1 16.51626,-14.90491 16.516256,14.904914 0 0 1 16.51626,14.90491 z" />
    <path
       id="path1-5-2-9-9-7-0"
       style="fill:#333333;stroke:#000080;stroke-width:1.05833;paint-order:stroke markers fill"
       d="m 386.13006,172.68484 a 16.516256,14.904914 0 0 1 -16.51626,14.90492 16.516256,14.904914 0 0 1 -16.51626,-14.90492 16.516256,14.904914 0 0 1 16.51626,-14.90491 16.516256,14.904914 0 0 1 16.51626,14.90491 z" />
    <path
       id="path1-6-7-6-3"
       style="fill:#333333;stroke:#000080;stroke-width:1.05833;paint-order:stroke markers fill"
       d="m 386.13006,202.49466 a 16.516256,14.904914 0 0 1 -16.51626,14.90491 16.516256,14.904914 0 0 1 -16.51626,-14.90491 16.516256,14.904914 0 0 1 16.51626,-14.90491 16.516256,14.904914 0 0 1 16.51626,14.90491 z" />
    <path
       id="path1-5-26-3-5-0"
       style="fill:#333333;stroke:#000080;stroke-width:1.05833;paint-order:stroke markers fill"
       d="m 386.13006,232.30447 a 16.516256,14.904914 0 0 1 -16.51626,14.90492 16.516256,14.904914 0 0 1 -16.51626,-14.90492 16.516256,14.904914 0 0 1 16.51626,-14.90491 16.516256,14.904914 0 0 1 16.51626,14.90491 z" />
    <path
       id="path1-5-2-1-6-6-4"
       style="fill:#333333;stroke:#000080;stroke-width:1.05833;paint-order:stroke markers fill"
       d="m 386.13006,262.11432 a 16.516256,14.904914 0 0 1 -16.51626,14.90491 16.516256,14.904914 0 0 1 -16.51626,-14.90491 16.516256,14.904914 0 0 1 16.51626,-14.90492 16.516256,14.904914 0 0 1 16.51626,14.90492 z" />
    <path
       id="path1-5-2-1-2-1-9-4"
       style="fill:#333333;stroke:#000080;stroke-width:1.05833;paint-order:stroke markers fill"
       d="m 386.13006,291.92413 a 16.516256,14.904914 0 0 1 -16.51626,14.90492 16.516256,14.904914 0 0 1 -16.51626,-14.90492 16.516256,14.904914 0 0 1 16.51626,-14.90491 16.516256,14.904914 0 0 1 16.51626,14.90491 z" />
    <path
       id="path1-52-4"
       style="fill:#333333;stroke:#000080;stroke-width:1.05833;paint-order:stroke markers fill"
       d="M 419.16256,8.7307949 A 16.516256,14.904914 0 0 1 402.6463,23.635709 16.516256,14.904914 0 0 1 386.13004,8.7307949 16.516256,14.904914 0 0 1 402.6463,-6.174119 16.516256,14.904914 0 0 1 419.16256,8.7307949 Z" />
    <path
       id="path1-5-5-4"
       style="fill:#333333;stroke:#000080;stroke-width:1.05833;paint-order:stroke markers fill"
       d="M 419.16256,38.540627 A 16.516256,14.904914 0 0 1 402.6463,53.44554 16.516256,14.904914 0 0 1 386.13004,38.540627 16.516256,14.904914 0 0 1 402.6463,23.635713 16.516256,14.904914 0 0 1 419.16256,38.540627 Z" />
    <path
       id="path1-5-2-4-7"
       style="fill:#333333;stroke:#000080;stroke-width:1.05833;paint-order:stroke markers fill"
       d="M 419.16256,68.350471 A 16.516256,14.904914 0 0 1 402.6463,83.255385 16.516256,14.904914 0 0 1 386.13004,68.350471 16.516256,14.904914 0 0 1 402.6463,53.445558 16.516256,14.904914 0 0 1 419.16256,68.350471 Z" />
    <path
       id="path1-7-7-6"
       style="fill:#333333;stroke:#000080;stroke-width:1.05833;paint-order:stroke markers fill"
       d="M 419.16256,98.160286 A 16.516256,14.904914 0 0 1 402.6463,113.0652 16.516256,14.904914 0 0 1 386.13004,98.160286 16.516256,14.904914 0 0 1 402.6463,83.255372 16.516256,14.904914 0 0 1 419.16256,98.160286 Z" />
    <path
       id="path1-5-0-4-3"
       style="fill:#333333;stroke:#000080;stroke-width:1.05833;paint-order:stroke markers fill"
       d="m 419.16256,127.97013 a 16.516256,14.904914 0 0 1 -16.51626,14.90491 16.516256,14.904914 0 0 1 -16.51626,-14.90491 16.516256,14.904914 0 0 1 16.51626,-14.90491 16.516256,14.904914 0 0 1 16.51626,14.90491 z" />
    <path
       id="path1-5-2-9-4-1"
       style="fill:#333333;stroke:#000080;stroke-width:1.05833;paint-order:stroke markers fill"
       d="m 419.16256,157.77994 a 16.516256,14.904914 0 0 1 -16.51626,14.90491 16.516256,14.904914 0 0 1 -16.51626,-14.90491 16.516256,14.904914 0 0 1 16.51626,-14.90492 16.516256,14.904914 0 0 1 16.51626,14.90492 z" />
    <path
       id="path1-6-3-7"
       style="fill:#333333;stroke:#000080;stroke-width:1.05833;paint-order:stroke markers fill"
       d="m 419.16256,187.58975 a 16.516256,14.904914 0 0 1 -16.51626,14.90492 16.516256,14.904914 0 0 1 -16.51626,-14.90492 16.516256,14.904914 0 0 1 16.51626,-14.90491 16.516256,14.904914 0 0 1 16.51626,14.90491 z" />
    <path
       id="path1-5-26-07-5"
       style="fill:#333333;stroke:#000080;stroke-width:1.05833;paint-order:stroke markers fill"
       d="m 419.16256,217.39957 a 16.516256,14.904914 0 0 1 -16.51626,14.90491 16.516256,14.904914 0 0 1 -16.51626,-14.90491 16.516256,14.904914 0 0 1 16.51626,-14.90492 16.516256,14.904914 0 0 1 16.51626,14.90492 z" />
    <path
       id="path1-5-2-1-8-9"
       style="fill:#333333;stroke:#000080;stroke-width:1.05833;paint-order:stroke markers fill"
       d="m 419.16256,247.20941 a 16.516256,14.904914 0 0 1 -16.51626,14.90492 16.516256,14.904914 0 0 1 -16.51626,-14.90492 16.516256,14.904914 0 0 1 16.51626,-14.90491 16.516256,14.904914 0 0 1 16.51626,14.90491 z" />
    <path
       id="path1-5-2-1-2-6-6"
       style="fill:#333333;stroke:#000080;stroke-width:1.05833;paint-order:stroke markers fill"
       d="m 419.16256,277.01923 a 16.516256,14.904914 0 0 1 -16.51626,14.90491 16.516256,14.904914 0 0 1 -16.51626,-14.90491 16.516256,14.904914 0 0 1 16.51626,-14.90492 16.516256,14.904914 0 0 1 16.51626,14.90492 z" />
    <path
       id="path1-75-8-2"
       style="fill:#333333;stroke:#000080;stroke-width:1.05833;paint-order:stroke markers fill"
       d="M 452.19509,23.635717 A 16.516256,14.904914 0 0 1 435.67883,38.540631 16.516256,14.904914 0 0 1 419.16258,23.635717 16.516256,14.904914 0 0 1 435.67883,8.7308035 16.516256,14.904914 0 0 1 452.19509,23.635717 Z" />
    <path
       id="path1-75-1-8-1"
       style="fill:#333333;stroke:#000080;stroke-width:1.05833;paint-order:stroke markers fill"
       d="M 452.19509,-6.1741128 A 16.516256,14.904914 0 0 1 435.67883,8.7308011 16.516256,14.904914 0 0 1 419.16258,-6.1741128 16.516256,14.904914 0 0 1 435.67883,-21.079027 16.516256,14.904914 0 0 1 452.19509,-6.1741128 Z" />
    <path
       id="path1-5-9-4-7"
       style="fill:#333333;stroke:#000080;stroke-width:1.05833;paint-order:stroke markers fill"
       d="M 452.19509,53.445534 A 16.516256,14.904914 0 0 1 435.67883,68.350448 16.516256,14.904914 0 0 1 419.16258,53.445534 16.516256,14.904914 0 0 1 435.67883,38.54062 16.516256,14.904914 0 0 1 452.19509,53.445534 Z" />
    <path
       id="path1-5-2-2-3-8"
       style="fill:#333333;stroke:#000080;stroke-width:1.05833;paint-order:stroke markers fill"
       d="M 452.19509,83.255379 A 16.516256,14.904914 0 0 1 435.67883,98.160293 16.516256,14.904914 0 0 1 419.16258,83.255379 16.516256,14.904914 0 0 1 435.67883,68.350465 16.516256,14.904914 0 0 1 452.19509,83.255379 Z" />
    <path
       id="path1-7-2-1-5"
       style="fill:#333333;stroke:#000080;stroke-width:1.05833;paint-order:stroke markers fill"
       d="m 452.19509,113.06519 a 16.516256,14.904914 0 0 1 -16.51626,14.90492 16.516256,14.904914 0 0 1 -16.51625,-14.90492 16.516256,14.904914 0 0 1 16.51625,-14.904911 16.516256,14.904914 0 0 1 16.51626,14.904911 z" />
    <path
       id="path1-5-0-8-49-7"
       style="fill:#333333;stroke:#000080;stroke-width:1.05833;paint-order:stroke markers fill"
       d="m 452.19509,142.87503 a 16.516256,14.904914 0 0 1 -16.51626,14.90491 16.516256,14.904914 0 0 1 -16.51625,-14.90491 16.516256,14.904914 0 0 1 16.51625,-14.90491 16.516256,14.904914 0 0 1 16.51626,14.90491 z" />
    <path
       id="path1-5-2-9-9-2-4"
       style="fill:#333333;stroke:#000080;stroke-width:1.05833;paint-order:stroke markers fill"
       d="m 452.19509,172.68484 a 16.516256,14.904914 0 0 1 -16.51626,14.90492 16.516256,14.904914 0 0 1 -16.51625,-14.90492 16.516256,14.904914 0 0 1 16.51625,-14.90491 16.516256,14.904914 0 0 1 16.51626,14.90491 z" />
    <path
       id="path1-6-7-0-1"
       style="fill:#333333;stroke:#000080;stroke-width:1.05833;paint-order:stroke markers fill"
       d="m 452.19509,202.49466 a 16.516256,14.904914 0 0 1 -16.51626,14.90491 16.516256,14.904914 0 0 1 -16.51625,-14.90491 16.516256,14.904914 0 0 1 16.51625,-14.90491 16.516256,14.904914 0 0 1 16.51626,14.90491 z" />
    <path
       id="path1-5-26-3-6-8"
       style="fill:#333333;stroke:#000080;stroke-width:1.05833;paint-order:stroke markers fill"
       d="m 452.19509,232.30447 a 16.516256,14.904914 0 0 1 -16.51626,14.90492 16.516256,14.904914 0 0 1 -16.51625,-14.90492 16.516256,14.904914 0 0 1 16.51625,-14.90491 16.516256,14.904914 0 0 1 16.51626,14.90491 z" />
    <path
       id="path1-5-2-1-6-8-5"
       style="fill:#333333;stroke:#000080;stroke-width:1.05833;paint-order:stroke markers fill"
       d="m 452.19509,262.11432 a 16.516256,14.904914 0 0 1 -16.51626,14.90491 16.516256,14.904914 0 0 1 -16.51625,-14.90491 16.516256,14.904914 0 0 1 16.51625,-14.90492 16.516256,14.904914 0 0 1 16.51626,14.90492 z" />
    <path
       id="path1-5-2-1-2-1-92-9"
       style="fill:#333333;stroke:#000080;stroke-width:1.05833;paint-order:stroke markers fill"
       d="m 452.19509,291.92413 a 16.516256,14.904914 0 0 1 -16.51626,14.90492 16.516256,14.904914 0 0 1 -16.51625,-14.90492 16.516256,14.904914 0 0 1 16.51625,-14.90491 16.516256,14.904914 0 0 1 16.51626,14.90491 z" />
    <path
       id="path1-8-6-7"
       style="fill:#333333;stroke:#000080;stroke-width:1.05833;paint-order:stroke markers fill"
       d="M 485.22762,8.7307949 A 16.516256,14.904914 0 0 1 468.71136,23.635709 16.516256,14.904914 0 0 1 452.19511,8.7307949 16.516256,14.904914 0 0 1 468.71136,-6.174119 16.516256,14.904914 0 0 1 485.22762,8.7307949 Z" />
    <path
       id="path1-5-4-6-5"
       style="fill:#333333;stroke:#000080;stroke-width:1.05833;paint-order:stroke markers fill"
       d="M 485.22762,38.540627 A 16.516256,14.904914 0 0 1 468.71136,53.44554 16.516256,14.904914 0 0 1 452.19511,38.540627 16.516256,14.904914 0 0 1 468.71136,23.635713 16.516256,14.904914 0 0 1 485.22762,38.540627 Z" />
    <path
       id="path1-5-2-5-4-3"
       style="fill:#333333;stroke:#000080;stroke-width:1.05833;paint-order:stroke markers fill"
       d="M 485.22762,68.350441 A 16.516256,14.904914 0 0 1 468.71136,83.255355 16.516256,14.904914 0 0 1 452.19511,68.350441 16.516256,14.904914 0 0 1 468.71136,53.445527 16.516256,14.904914 0 0 1 485.22762,68.350441 Z" />
    <path
       id="path1-7-0-9-8"
       style="fill:#333333;stroke:#000080;stroke-width:1.05833;paint-order:stroke markers fill"
       d="M 485.22762,98.160286 A 16.516256,14.904914 0 0 1 468.71136,113.0652 16.516256,14.904914 0 0 1 452.19511,98.160286 16.516256,14.904914 0 0 1 468.71136,83.255372 16.516256,14.904914 0 0 1 485.22762,98.160286 Z" />
    <path
       id="path1-5-0-3-5-8"
       style="fill:#333333;stroke:#000080;stroke-width:1.05833;paint-order:stroke markers fill"
       d="m 485.22762,127.97013 a 16.516256,14.904914 0 0 1 -16.51626,14.90491 16.516256,14.904914 0 0 1 -16.51625,-14.90491 16.516256,14.904914 0 0 1 16.51625,-14.90491 16.516256,14.904914 0 0 1 16.51626,14.90491 z" />
    <path
       id="path1-5-2-9-6-0-3"
       style="fill:#333333;stroke:#000080;stroke-width:1.05833;paint-order:stroke markers fill"
       d="m 485.22762,157.77994 a 16.516256,14.904914 0 0 1 -16.51626,14.90491 16.516256,14.904914 0 0 1 -16.51625,-14.90491 16.516256,14.904914 0 0 1 16.51625,-14.90492 16.516256,14.904914 0 0 1 16.51626,14.90492 z" />
    <path
       id="path1-6-1-4-1"
       style="fill:#333333;stroke:#000080;stroke-width:1.05833;paint-order:stroke markers fill"
       d="m 485.22762,187.58975 a 16.516256,14.904914 0 0 1 -16.51626,14.90492 16.516256,14.904914 0 0 1 -16.51625,-14.90492 16.516256,14.904914 0 0 1 16.51625,-14.90491 16.516256,14.904914 0 0 1 16.51626,14.90491 z" />
    <path
       id="path1-5-26-0-8-8"
       style="fill:#333333;stroke:#000080;stroke-width:1.05833;paint-order:stroke markers fill"
       d="m 485.22762,217.39957 a 16.516256,14.904914 0 0 1 -16.51626,14.90491 16.516256,14.904914 0 0 1 -16.51625,-14.90491 16.516256,14.904914 0 0 1 16.51625,-14.90492 16.516256,14.904914 0 0 1 16.51626,14.90492 z" />
    <path
       id="path1-5-2-1-63-7-9"
       style="fill:#333333;stroke:#000080;stroke-width:1.05833;paint-order:stroke markers fill"
       d="m 485.22762,247.20941 a 16.516256,14.904914 0 0 1 -16.51626,14.90492 16.516256,14.904914 0 0 1 -16.51625,-14.90492 16.516256,14.904914 0 0 1 16.51625,-14.90491 16.516256,14.904914 0 0 1 16.51626,14.90491 z" />
    <path
       id="path1-5-2-1-2-2-1-6"
       style="fill:#333333;stroke:#000080;stroke-width:1.05833;paint-order:stroke markers fill"
       d="m 485.22762,277.01923 a 16.516256,14.904914 0 0 1 -16.51626,14.90491 16.516256,14.904914 0 0 1 -16.51625,-14.90491 16.516256,14.904914 0 0 1 16.51625,-14.90492 16.516256,14.904914 0 0 1 16.51626,14.90492 z" />
    <path
       id="path1-75-0-7-4"
       style="fill:#333333;stroke:#000080;stroke-width:1.05833;paint-order:stroke markers fill"
       d="M 518.26015,23.635717 A 16.516256,14.904914 0 0 1 501.7439,38.540631 16.516256,14.904914 0 0 1 485.22764,23.635717 16.516256,14.904914 0 0 1 501.7439,8.7308035 16.516256,14.904914 0 0 1 518.26015,23.635717 Z" />
    <path
       id="path1-75-1-6-2-3"
       style="fill:#333333;stroke:#000080;stroke-width:1.05833;paint-order:stroke markers fill"
       d="M 518.26015,-6.1741281 A 16.516256,14.904914 0 0 1 501.7439,8.7307858 16.516256,14.904914 0 0 1 485.22764,-6.1741281 16.516256,14.904914 0 0 1 501.7439,-21.079042 16.516256,14.904914 0 0 1 518.26015,-6.1741281 Z" />
    <path
       id="path1-5-9-1-7-3"
       style="fill:#333333;stroke:#000080;stroke-width:1.05833;paint-order:stroke markers fill"
       d="M 518.26015,53.445534 A 16.516256,14.904914 0 0 1 501.7439,68.350448 16.516256,14.904914 0 0 1 485.22764,53.445534 16.516256,14.904914 0 0 1 501.7439,38.54062 16.516256,14.904914 0 0 1 518.26015,53.445534 Z" />
    <path
       id="path1-5-2-2-5-2-3"
       style="fill:#333333;stroke:#000080;stroke-width:1.05833;paint-order:stroke markers fill"
       d="M 518.26015,83.255379 A 16.516256,14.904914 0 0 1 501.7439,98.160293 16.516256,14.904914 0 0 1 485.22764,83.255379 16.516256,14.904914 0 0 1 501.7439,68.350465 16.516256,14.904914 0 0 1 518.26015,83.255379 Z" />
    <path
       id="path1-7-2-5-2-8"
       style="fill:#333333;stroke:#000080;stroke-width:1.05833;paint-order:stroke markers fill"
       d="M 518.26015,113.06519 A 16.516256,14.904914 0 0 1 501.7439,127.97011 16.516256,14.904914 0 0 1 485.22764,113.06519 16.516256,14.904914 0 0 1 501.7439,98.160279 16.516256,14.904914 0 0 1 518.26015,113.06519 Z" />
    <path
       id="path1-5-0-8-4-6-6"
       style="fill:#333333;stroke:#000080;stroke-width:1.05833;paint-order:stroke markers fill"
       d="m 518.26015,142.87503 a 16.516256,14.904914 0 0 1 -16.51625,14.90491 16.516256,14.904914 0 0 1 -16.51626,-14.90491 16.516256,14.904914 0 0 1 16.51626,-14.90491 16.516256,14.904914 0 0 1 16.51625,14.90491 z" />
    <path
       id="path1-5-2-9-9-7-1-0"
       style="fill:#333333;stroke:#000080;stroke-width:1.05833;paint-order:stroke markers fill"
       d="m 518.26015,172.68484 a 16.516256,14.904914 0 0 1 -16.51625,14.90492 16.516256,14.904914 0 0 1 -16.51626,-14.90492 16.516256,14.904914 0 0 1 16.51626,-14.90491 16.516256,14.904914 0 0 1 16.51625,14.90491 z" />
    <path
       id="path1-6-7-6-0-4"
       style="fill:#333333;stroke:#000080;stroke-width:1.05833;paint-order:stroke markers fill"
       d="m 518.26015,202.49466 a 16.516256,14.904914 0 0 1 -16.51625,14.90491 16.516256,14.904914 0 0 1 -16.51626,-14.90491 16.516256,14.904914 0 0 1 16.51626,-14.90491 16.516256,14.904914 0 0 1 16.51625,14.90491 z" />
    <path
       id="path1-5-26-3-5-6-8"
       style="fill:#333333;stroke:#000080;stroke-width:1.05833;paint-order:stroke markers fill"
       d="m 518.26015,232.30447 a 16.516256,14.904914 0 0 1 -16.51625,14.90492 16.516256,14.904914 0 0 1 -16.51626,-14.90492 16.516256,14.904914 0 0 1 16.51626,-14.90491 16.516256,14.904914 0 0 1 16.51625,14.90491 z" />
    <path
       id="path1-5-2-1-6-6-1-8"
       style="fill:#333333;stroke:#000080;stroke-width:1.05833;paint-order:stroke markers fill"
       d="m 518.26015,262.11432 a 16.516256,14.904914 0 0 1 -16.51625,14.90491 16.516256,14.904914 0 0 1 -16.51626,-14.90491 16.516256,14.904914 0 0 1 16.51626,-14.90492 16.516256,14.904914 0 0 1 16.51625,14.90492 z" />
    <path
       id="path1-5-2-1-2-1-9-5-8"
       style="fill:#333333;stroke:#000080;stroke-width:1.05833;paint-order:stroke markers fill"
       d="m 518.26015,291.92413 a 16.516256,14.904914 0 0 1 -16.51625,14.90492 16.516256,14.904914 0 0 1 -16.51626,-14.90492 16.516256,14.904914 0 0 1 16.51626,-14.90491 16.516256,14.904914 0 0 1 16.51625,14.90491 z" />
  </g>
</svg>
