<?xml version="1.0" encoding="UTF-8"?>
<!-- Created with Inkscape (http://www.inkscape.org/) -->
<svg width="1615" height="346.53" version="1.1" viewBox="0 0 1615 346.53" xmlns="http://www.w3.org/2000/svg">
 <g transform="translate(0 -.0044)" fill="#1a1a1a" stroke-linecap="round" stroke-linejoin="round" stroke-width="6.8898">
  <path d="m1615 6.9841v66.554h-51.353v266.01h-86.479v-266.01h-51.148v-66.554z" style="paint-order:fill markers stroke"/>
  <path d="m1413 6.9841-30.196 147.08 45.602 185.49h-80.111q-14.379-49.71-26.293-120.99-3.2866 31.428-9.0382 66.759l-8.2165 54.229h-84.219l31.223-185.49-31.223-147.08h83.603q2.2595 13.763 9.0381 45.807 5.3408 24.444 8.8328 44.78l18.487-90.587z" style="paint-order:fill markers stroke"/>
  <path d="m1063 6.9841h144.2v66.554h-57.721v63.062h54.024v63.267h-54.024v73.127h63.473v66.554h-149.95z" style="paint-order:fill markers stroke"/>
  <path d="m1043.3 6.9841v66.554h-51.353v266.01h-86.479v-266.01h-51.148v-66.554z" style="paint-order:fill markers stroke"/>
  <path d="m775.23 6.9841v66.554h-51.353v266.01h-86.479v-266.01h-51.148v-66.554z" style="paint-order:fill markers stroke"/>
  <path d="m566.73 107.64h-80.317v-24.65q0-17.255-3.0812-21.979-3.0812-4.7245-10.271-4.7245-7.8057 0-11.914 6.3678-3.9028 6.3678-3.9028 19.309 0 16.638 4.5191 25.06 4.3137 8.4219 24.444 20.336 57.721 34.304 72.716 56.283t14.995 70.868q0 35.536-8.4219 52.38-8.2165 16.844-32.044 28.347-23.828 11.298-55.462 11.298-34.715 0-59.364-13.146-24.444-13.146-32.044-33.482-7.6003-20.336-7.6003-57.721v-21.774h80.317v40.466q0 18.693 3.2866 24.033 3.492 5.3407 12.119 5.3407t12.736-6.7786q4.3137-6.7786 4.3137-20.13 0-29.374-8.0111-38.412-8.2165-9.0382-40.466-30.196-32.25-21.363-42.726-31.017-10.476-9.6544-17.46-26.704-6.7786-17.049-6.7786-43.548 0-38.207 9.6544-55.872 9.8598-17.666 31.634-27.525 21.774-10.065 52.586-10.065 33.688 0 57.31 10.887 23.828 10.887 31.428 27.525 7.8057 16.433 7.8057 56.078z" style="paint-order:fill markers stroke"/>
  <path d="m208.7 6.9841h144.2v66.554h-57.721v63.062h54.024v63.267h-54.024v73.127h63.473v66.554h-149.95z" style="paint-order:fill markers stroke"/>
  <path d="m188.98 6.9841v66.554h-51.353v266.01h-86.479v-266.01h-51.148v-66.554z" style="paint-order:fill markers stroke"/>
 </g>
</svg>
